<?xml version="1.0" standalone="no"?>
<!DOCTYPE svg PUBLIC "-//W3C//DTD SVG 1.1//EN" "http://www.w3.org/Graphics/SVG/1.1/DTD/svg11.dtd" >
<svg xmlns="http://www.w3.org/2000/svg">
<metadata>
This is a custom SVG webfont generated by Font Squirrel.
Copyright   : Copyright c 2009 by Jasper de Waard All rights reserved
Designer    : Jasper de Waard
Foundry     : Jasper de Waard
</metadata>
<defs>
<font id="webfont2vF3VLRG" horiz-adv-x="1079" >
<font-face units-per-em="2048" ascent="1638" descent="-410" />
<missing-glyph horiz-adv-x="526" />
<glyph unicode=" "  horiz-adv-x="526" />
<glyph unicode="&#x09;" horiz-adv-x="526" />
<glyph unicode="&#xa0;" horiz-adv-x="526" />
<glyph unicode="!" horiz-adv-x="718" d="M383 1489l-43 -1018h-205l-39 1018h287zM66 139q0 35 13 67t35.5 55.5t53.5 36.5t68 13q72 0 119.5 -50t47.5 -122t-48 -120t-119 -48q-72 0 -121 48t-49 120z" />
<glyph unicode="&#x22;" horiz-adv-x="851" d="M68 1489h249v-160q0 -72 -14 -133t-44 -104t-77 -61.5t-114 -4.5v463zM485 1489h250v-160q0 -72 -14 -133t-44 -104t-77 -61.5t-115 -4.5v463z" />
<glyph unicode="#" horiz-adv-x="1830" d="M983 289l14 30l-30 -4h-316q10 29 26.5 61t43.5 57.5t65.5 43t94.5 17.5h135l82 424l16 32l-37 -4h-370l-181 -946h-229l59 297l15 22l-29 -4h-209v177h256l84 436l14 22l-32 -4h-201v180h258l57 312h230l-60 -312h400l59 312h229l-61 -312h233v-178h-266l-88 -454h232 v-179h-260l-62 -315h-229z" />
<glyph unicode="$" horiz-adv-x="1052" d="M541 1253q-92 0 -147.5 -44t-55.5 -109q0 -68 52 -116t129 -91t168 -87t168 -102.5t129 -138.5t52 -194q0 -166 -105.5 -263.5t-283.5 -123.5v-203h-217v196q-78 8 -172 33t-205 72l78 192q111 -49 208 -68.5t175 -19.5q111 0 181.5 55.5t70.5 133.5q0 72 -51 122 t-129 93t-167 85t-167 97t-129 129t-51 182q0 84 27.5 148.5t75.5 109.5t113.5 73t141.5 38v207h217v-207q59 -6 125 -19.5t152 -39.5l-76 -187q-92 25 -165.5 36t-141.5 11z" />
<glyph unicode="%" horiz-adv-x="1667" d="M1180 1438h227l-897 -1438h-227zM1681 391q0 -199 -96 -308.5t-260 -109.5t-258 108.5t-94 309.5q0 199 94 307.5t258 108.5t260 -108.5t96 -307.5zM1454 391q0 125 -35 189.5t-94 64.5q-55 0 -91 -64.5t-36 -189.5q0 -129 36 -192.5t91 -63.5q59 0 94 63.5t35 192.5z M721 1053q0 -199 -96.5 -308.5t-259.5 -109.5q-164 0 -258.5 108.5t-94.5 309.5q0 199 94.5 307t258.5 108t260 -108t96 -307zM494 1053q0 125 -35 189.5t-94 64.5q-55 0 -91 -64.5t-36 -189.5q0 -129 35.5 -192.5t91.5 -63.5q59 0 94 63.5t35 192.5z" />
<glyph unicode="&#x26;" horiz-adv-x="1558" d="M608 664l-18 34l-19 -36q-35 -43 -54 -92.5t-19 -114.5q0 -113 54 -189t165 -76q23 0 36 2.5t31 4.5q78 6 128.5 -32t93.5 -85q-72 -53 -150 -78t-170 -25q-104 0 -189 32t-146.5 90.5t-95.5 142.5t-34 186q0 139 69.5 242.5t170.5 179.5q-37 49 -58.5 88t-34 71.5 t-16.5 60.5t-4 56q0 94 35 166t97.5 120t147.5 72.5t183 24.5q68 0 154 -17t161 -52l-61 -189q-66 23 -134.5 34t-123.5 11q-88 0 -142.5 -42t-54.5 -109q0 -78 50.5 -147.5t134.5 -170.5l274 -323l21 -37l14 43q29 66 47 129t29 137h235q-29 -135 -67.5 -252.5 t-102.5 -222.5l260 -301h-325z" />
<glyph unicode="'" horiz-adv-x="391" d="M55 1489h250v-160q0 -72 -14.5 -133t-44 -104t-76.5 -61.5t-115 -4.5v463z" />
<glyph unicode="(" horiz-adv-x="825" d="M575 606q0 -170 7.5 -293t33 -216t75.5 -168.5t138 -153.5l-135 -135q-119 80 -191.5 169t-112.5 202.5t-53 258t-13 336.5q0 190 13 335.5t53 258.5t112.5 202t191.5 169l135 -133q-88 -80 -139 -156t-76.5 -170t-32 -215t-6.5 -291z" />
<glyph unicode=")" horiz-adv-x="821" d="M250 606q0 170 -6 291t-32 215t-77 170t-139 156l135 133q119 -80 191.5 -169t112.5 -202t53.5 -258t13.5 -336q0 -193 -13.5 -337t-53.5 -257.5t-112.5 -203t-191.5 -168.5l-135 135q88 78 138 153.5t76 168.5t33 216t7 293z" />
<glyph unicode="*" horiz-adv-x="1085" d="M510 1208l111 320l192 -113l-221 -252l330 64v-221l-334 65l223 -252l-193 -110l-106 319l-109 -319l-192 110l223 254l-330 -65v221l326 -64l-221 250l192 113z" />
<glyph unicode="+" horiz-adv-x="1163" d="M96 723h369v395h217v-395h373v-197h-373v-399h-217v399h-369v197z" />
<glyph unicode="," horiz-adv-x="520" d="M115 201h250v-160q0 -72 -14.5 -133.5t-44.5 -104.5t-77 -61t-114 -4v463z" />
<glyph unicode="-" horiz-adv-x="768" d="M92 522v201h619v-201h-619z" />
<glyph unicode="." horiz-adv-x="559" d="M86 137q0 35 13.5 67t36 55.5t53 36.5t67.5 13q72 0 120 -50t48 -122t-48 -120t-120 -48t-121 48t-49 120z" />
<glyph unicode="/" horiz-adv-x="679" d="M-27 -127l498 1616h248l-498 -1616h-248z" />
<glyph unicode="0" horiz-adv-x="1454" d="M1280 715q0 -147 -37 -283.5t-112.5 -241t-189.5 -167t-267 -62.5q-135 0 -247 52.5t-191.5 149.5t-123.5 236.5t-44 315.5q0 170 42 309t120.5 239.5t191.5 155t252 54.5q160 0 274.5 -68t188 -175.5t108.5 -242.5t35 -272zM969 715q0 125 -18.5 226t-55.5 173t-92 111 t-129 39q-76 0 -131.5 -39t-92 -111t-54 -173t-17.5 -226t18.5 -225.5t55 -171t92 -109.5t129.5 -39t129 39t92 109.5t55.5 171t18.5 225.5z" />
<glyph unicode="1" horiz-adv-x="653" d="M264 0v1139l-217 -113l-88 164l457 246h110v-1436h-262z" />
<glyph unicode="2" horiz-adv-x="1161" d="M1012 1069q0 -100 -56.5 -208.5t-137.5 -215t-171 -207.5l-160 -184l-32 -37l47 6h532v-223h-944v121q29 68 86 144.5t126 157.5l140 165q72 84 131.5 165t97.5 155.5t38 140.5q0 98 -67 150t-167 52q-47 0 -112.5 -14t-143.5 -49l-74 188q102 47 190.5 65.5t160.5 18.5 q119 0 214 -26.5t162.5 -77.5t103.5 -123t36 -164z" />
<glyph unicode="3" horiz-adv-x="1081" d="M922 1118q0 -184 -211 -315l-52 -21l48 -10q115 -45 189.5 -142.5t74.5 -232.5q0 -96 -43 -174t-118 -132t-174 -84t-210 -30q-113 0 -215 26t-201 69l68 186q94 -41 167.5 -56.5t135.5 -15.5q53 0 105.5 14.5t93.5 41t65.5 66.5t24.5 93q0 70 -30 115t-84 71.5t-127 38 t-159 11.5l-18 174l155 69q69 32 115.5 65.5t72.5 71.5t26 87q0 72 -58.5 108.5t-140.5 36.5q-59 0 -125 -13t-160 -52l-69 190q119 49 215 66.5t182 17.5q96 0 179 -22.5t144.5 -66.5t97.5 -107.5t36 -143.5z" />
<glyph unicode="4" horiz-adv-x="1218" d="M438 496q45 0 79 -19.5t58.5 -49.5t41 -66.5t26.5 -71.5h-596v198l598 949h344v-940h166v-207h-166v-289h-272v1061l4 67l-31 -57l-336 -536l-32 -41l43 2h73z" />
<glyph unicode="5" horiz-adv-x="1099" d="M369 905l-7 -28l37 8q20 2 37 2h29q125 0 225.5 -35t170 -96.5t106.5 -143.5t37 -176q0 -104 -44.5 -189t-122 -145.5t-184 -93.5t-229.5 -33q-78 0 -171 19.5t-212 79.5l68 186q106 -41 181 -58.5t132 -17.5q66 0 118 21.5t88 57.5t55 82t19 95q0 117 -86 178.5 t-221 61.5q-53 0 -120.5 -6t-163.5 -23l51 785h780v-224h-551z" />
<glyph unicode="6" horiz-adv-x="1280" d="M848 1245q-109 0 -191 -45t-137 -123t-82.5 -182t-27.5 -221q0 -84 13 -173t45 -162t86 -119t136 -46q45 0 85 22.5t69.5 60.5t47 90t17.5 112q0 123 -48 180t-109 57q-27 0 -64 -6q-35 -6 -64.5 5.5t-52 32t-41 47t-30.5 50.5q90 47 160.5 63.5t121.5 16.5 q86 0 165 -28.5t137.5 -85t93 -140.5t34.5 -192q0 -90 -35.5 -177t-102 -158t-162 -114t-216.5 -43q-156 0 -266.5 56.5t-182 152.5t-105 224t-33.5 270q0 156 53 298t149.5 250.5t233.5 172t303 63.5q51 0 120.5 -12t145.5 -37l-65 -191q-63 18 -111.5 24.5t-89.5 6.5z" />
<glyph unicode="7" horiz-adv-x="1030" d="M215 0q25 174 59.5 328.5t85 297t119 277.5t158.5 273l31 30l-52 -4h-538v234h897v-199q-84 -109 -158 -225.5t-134 -262t-104 -327.5t-67 -422h-297z" />
<glyph unicode="8" horiz-adv-x="1355" d="M1176 1087q0 -72 -41 -149.5t-113 -163.5l-41 -31l35 -16q88 -59 147.5 -144t59.5 -218q0 -94 -41 -167t-113 -123t-168 -76t-209 -26q-115 0 -212 26t-166.5 76t-108.5 122.5t-39 167.5q0 72 38 151.5t136 181.5q27 -25 52.5 -53.5t44 -59t25.5 -64.5t-1 -66 q-10 -29 -14.5 -48.5t-4.5 -41.5q0 -86 70 -135.5t180 -49.5q117 0 180.5 54.5t63.5 130.5q0 78 -53.5 129t-133 91t-174 78.5t-174 93t-133 132.5t-53.5 198q0 88 38 158t104.5 118t154.5 73.5t186 25.5q102 0 189.5 -25.5t152 -73.5t100.5 -118t36 -158zM502 1087 q0 -45 23.5 -79.5t64.5 -63.5t93 -53l112 -51q51 59 75.5 116.5t26.5 108.5q0 51 -16.5 87t-44 58.5t-63.5 32.5t-75 10q-84 0 -140 -41t-56 -125z" />
<glyph unicode="9" horiz-adv-x="1277" d="M473 188q109 0 190.5 45.5t137 123t83 182t27.5 221.5q0 84 -13 172t-45 160.5t-86 118.5t-136 46q-45 0 -85 -22.5t-70 -60t-47 -90t-17 -109.5q0 -123 48 -180.5t109 -57.5q10 0 27.5 1t36.5 5q35 6 63.5 -5t52 -31.5t42 -47t30.5 -51.5q-90 -47 -160.5 -63.5 t-121.5 -16.5q-88 0 -166 29t-136.5 85t-93 140t-34.5 193q0 88 34.5 176t101 158.5t163 113.5t217.5 43q156 0 266 -56t182 -152.5t105.5 -224.5t33.5 -269q0 -158 -53 -300t-149.5 -250t-233.5 -171t-303 -63q-51 0 -121.5 11t-144.5 38l65 188q63 -16 111.5 -22.5 t89.5 -6.5z" />
<glyph unicode=":" horiz-adv-x="612" d="M141 137q0 35 13.5 67t36 55.5t53 36.5t67.5 13q72 0 120 -50t48 -122t-48 -120t-120 -48t-121 48t-49 120zM141 872q0 35 13.5 67t36 55.5t53 36.5t67.5 13q72 0 120 -50t48 -122t-48 -119.5t-120 -47.5t-121 47.5t-49 119.5z" />
<glyph unicode=";" horiz-adv-x="612" d="M141 872q0 35 13.5 67t36 55.5t53 36.5t67.5 13q72 0 120 -50t48 -122t-48 -119.5t-120 -47.5t-121 47.5t-49 119.5zM184 201h250v-160q0 -72 -14 -133.5t-44 -104.5t-77 -61t-115 -4v463z" />
<glyph unicode="&#x3c;" horiz-adv-x="1255" d="M1135 268v-268l-1059 473v184l1059 473v-266l-711 -284l-53 -15l53 -12z" />
<glyph unicode="=" horiz-adv-x="1241" d="M137 530h967v-200h-967v200zM137 983h967v-201h-967v201z" />
<glyph unicode="&#x3e;" horiz-adv-x="1255" d="M823 553l54 12l-54 15l-710 284v266l1058 -473v-184l-1058 -473v268z" />
<glyph unicode="?" horiz-adv-x="1193" d="M543 1509q102 0 188 -22.5t147.5 -64.5t96.5 -104.5t35 -141.5q0 -72 -30 -133.5t-73 -118t-95 -108.5t-95 -106.5t-73 -112.5t-30 -126h-241q0 92 25.5 165t63.5 130t83 105l83 93q38 44 63.5 87t25.5 94q0 70 -53.5 110.5t-141.5 40.5q-29 0 -57.5 -2t-60 -9 t-69.5 -19.5t-87 -32.5l-74 192q115 51 199 67.5t170 16.5zM324 139q0 35 13 67t35.5 55.5t53.5 36.5t68 13q72 0 120 -50t48 -122t-48.5 -120t-119.5 -48q-72 0 -121 48t-49 120z" />
<glyph unicode="@" horiz-adv-x="1882" d="M1288 348l-4 -43l29 25q47 31 80.5 72.5t55 88t32 92.5t10.5 89q0 111 -40 200t-112.5 152t-173 97t-221.5 34q-131 0 -239.5 -43t-186.5 -125t-121 -197.5t-43 -263.5q0 -145 42 -260.5t118 -196.5t178.5 -124t222.5 -43q45 0 85 2t84 8t93.5 18.5t112.5 30.5l60 -158 q-74 -25 -131.5 -39t-108.5 -22t-97 -10t-98 -2q-158 0 -296 47t-241.5 145t-163.5 247.5t-60 356.5q0 190 65.5 340t175 252.5t253 155.5t298.5 53q147 0 282.5 -43t239 -126t165 -206t61.5 -280q0 -102 -41 -194.5t-112 -167t-168 -126t-210 -71.5q-23 12 -34 34.5 t-21 49.5l-4 39l-21 -41q-59 -59 -115.5 -79t-111.5 -20q-125 0 -199.5 61.5t-74.5 166.5q0 61 23.5 108t75.5 81t137 56.5t206 34.5q-2 -14 -8 -38.5t-19.5 -49t-35 -44t-52.5 -23.5q-84 -12 -108.5 -45t-24.5 -72q0 -41 32 -65.5t89 -24.5q53 0 103.5 26.5t97.5 89.5v265 q0 94 -49.5 134t-139.5 40q-43 0 -85 -6.5t-109 -28.5l-53 137q84 33 147 44t129 11q168 0 259 -85t91 -257v-264z" />
<glyph unicode="A" horiz-adv-x="1478" d="M459 326l-109 -326h-289l535 1489h287l534 -1489h-303l-369 1108l-16 76l-18 -80l-174 -531l-25 -41l31 5h155q45 0 78 -20.5t57.5 -51.5t42 -69t27.5 -70h-444z" />
<glyph unicode="B" horiz-adv-x="1386" d="M637 877q53 0 102 15t86 44t59.5 68.5t22.5 89.5q0 37 -15 74.5t-47 68.5t-83 51.5t-125 20.5q-55 0 -92 -3t-92 -12v-417h184zM737 184q111 0 181.5 61.5t70.5 176.5q0 61 -26.5 109.5t-73.5 82t-111.5 52t-140.5 18.5h-184v-684h-287v1466q82 14 145.5 23.5t116.5 15.5 t103.5 8.5t105.5 2.5q137 0 243.5 -30t177 -85t107.5 -133t37 -172q0 -76 -47 -151t-123 -122l-59 -28l57 -15q55 -20 103.5 -58t83 -87t54 -104.5t19.5 -110.5q0 -80 -35.5 -159t-103.5 -141.5t-164 -102.5t-217 -40q-29 0 -52.5 1.5t-50 5.5t-58.5 11l-77 17 q12 27 31 57.5t43.5 56.5t57 42t73.5 16z" />
<glyph unicode="C" horiz-adv-x="1232" d="M891 -25q-190 0 -337.5 59.5t-249 164t-154 245t-52.5 301.5q0 160 54.5 300.5t157 245t250 165t331.5 60.5q86 0 174 -16.5t186 -53.5l-73 -189q-90 27 -153.5 37.5t-133.5 10.5q-123 0 -213 -48.5t-149.5 -126t-89 -178t-29.5 -207.5q0 -106 29.5 -206.5t89 -179 t149.5 -126t213 -47.5q137 0 285 70l75 -186q-92 -47 -183 -71t-177 -24z" />
<glyph unicode="D" horiz-adv-x="1529" d="M743 186q117 0 202 49.5t140.5 129t81 180t25.5 203.5q0 121 -32 223t-99.5 176t-173 116t-252.5 42q-41 0 -85 -4.5t-91 -12.5v-1288h-289v1462q137 29 256 41.5t209 12.5q205 0 365.5 -52.5t272 -151t170 -240.5t58.5 -324q0 -162 -55 -303.5t-151.5 -246t-230.5 -164 t-290 -59.5q-29 0 -52.5 1t-50 5.5t-58 10.5t-76.5 18q12 27 30.5 57.5t43 57.5t57 44t75.5 17z" />
<glyph unicode="E" horiz-adv-x="1204" d="M170 1489h893v-211h-600v-1067h633v-211h-926v1489zM541 678q10 33 26.5 69.5t41 67.5t58 50.5t78.5 19.5h248v-207h-452z" />
<glyph unicode="F" horiz-adv-x="1196" d="M170 1489h893v-211h-600v-1278h-293v1489zM541 678q10 33 26.5 69.5t41 67.5t58 50.5t78.5 19.5h248v-207h-452z" />
<glyph unicode="G" horiz-adv-x="1482" d="M903 1305q-123 0 -217 -46.5t-158.5 -123t-97.5 -179t-33 -213.5q0 -106 33 -206.5t95.5 -178t155.5 -125t216 -47.5q45 0 88 3.5t109 19.5v481h262v-614q-55 -25 -117.5 -44.5t-124 -31.5t-118 -18.5t-99.5 -6.5q-190 0 -340.5 59.5t-255 164t-160 245t-55.5 299.5 q0 162 57.5 302.5t164 245t257 165t338.5 60.5q86 0 201 -20.5t231 -70.5l-75 -196q-117 45 -201 60.5t-156 15.5z" />
<glyph unicode="H" horiz-adv-x="1564" d="M541 676q10 33 26.5 70.5t41 68.5t58 51.5t78.5 20.5h363v602h289v-1489h-289v676h-567zM170 1489h293v-1489h-293v1489z" />
<glyph unicode="I" horiz-adv-x="626" d="M455 0h-285v1489h285v-1489z" />
<glyph unicode="J" horiz-adv-x="755" d="M594 262q0 -143 -31 -243.5t-92 -179.5t-151.5 -146.5t-208.5 -147.5l-131 168l136 117q60 53 102 114.5t63.5 136.5t21.5 181v1227h291v-1227z" />
<glyph unicode="K" horiz-adv-x="1452" d="M889 893l530 -893h-336l-335 659l-15 50l-24 -45l-129 -166q-17 61 -17 125v14q2 72 17.5 140.5t43 130t64.5 110.5l338 471h322zM170 0v1489h293v-1489h-293z" />
<glyph unicode="L" horiz-adv-x="1087" d="M168 1489h295v-1276h536v-213h-831v1489z" />
<glyph unicode="M" horiz-adv-x="2011" d="M295 1489h371l325 -1149l15 -74l16 74l324 1149h372l140 -1489h-269l-80 1122l-6 99l-24 -99l-324 -1102h-301l-328 1104l-24 97l-6 -97l-76 -1124h-268z" />
<glyph unicode="N" horiz-adv-x="1593" d="M471 1042l-33 74l4 -69v-1047h-249v1489h282l629 -1002l29 -81l-5 81v1002h258v-1489h-258z" />
<glyph unicode="O" horiz-adv-x="1615" d="M829 1309q-106 0 -186 -45t-134 -123t-82 -180.5t-28 -215.5q0 -106 28 -207.5t82 -180t134 -127t186 -48.5q84 0 162 38t137.5 109.5t95.5 176t36 239.5q0 121 -30 224.5t-85 178.5t-135.5 118t-180.5 43zM829 -29q-178 0 -315 59.5t-232.5 163t-144.5 245t-49 306.5 q0 160 50 301.5t145.5 247t232.5 166t313 60.5q201 0 341.5 -70t229.5 -181.5t129 -249.5t40 -274q0 -152 -49.5 -291t-142.5 -246.5t-231.5 -172t-316.5 -64.5z" />
<glyph unicode="P" horiz-adv-x="1316" d="M1223 1051q0 -102 -40 -183.5t-106.5 -139.5t-151.5 -93t-177 -43q-27 -2 -56 -2q-21 0 -43 1q-51 3 -108 19q12 29 27.5 60.5t37 58.5t49 45.5t62.5 22.5q43 4 80 25.5t64.5 55t44 78.5t16.5 95q0 53 -20.5 99t-58.5 81t-90.5 55.5t-115.5 20.5q-29 0 -48 -1l-38 -2 q-18 -1 -38.5 -4.5t-47.5 -5.5v-1294h-295v1470q82 14 145.5 23.5t115.5 14.5t101.5 7.5t104.5 2.5q125 0 231.5 -33t185.5 -93.5t124 -146t45 -194.5z" />
<glyph unicode="Q" horiz-adv-x="1599" d="M807 -29q-166 0 -298 57.5t-226.5 160t-144.5 244.5t-50 312q0 168 52.5 309.5t148.5 245t233 162t307 58.5q172 0 309.5 -57.5t232.5 -161t146.5 -246t51.5 -310.5q0 -141 -51.5 -273t-135.5 -239l127 -131l-155 -155l-506 516l156 158l163 -168l27 -43l12 53 q29 66 41.5 139.5t12.5 142.5q0 113 -28 215.5t-82 180.5t-134 123t-187 45q-106 0 -186 -45t-134 -123t-82 -180.5t-28 -215.5q0 -106 27 -207.5t79 -180t128 -127t174 -48.5q14 0 39.5 2t44.5 2q33 0 65.5 -11t60 -28.5t50.5 -38t39 -38.5q-74 -49 -150.5 -74t-148.5 -25z " />
<glyph unicode="R" horiz-adv-x="1400" d="M1223 1061q0 -123 -55.5 -213t-147.5 -146l-57 -22q8 -4 22 -10t23 -13q61 -53 96 -125.5t60.5 -157.5t51 -180.5t70.5 -193.5h-301q-37 78 -58.5 167t-46 173t-57 155.5t-90.5 116.5q-25 -2 -51 -2q-20 0 -40 1q-48 3 -101 20q12 29 27.5 60.5t37 59t49 46t62.5 22.5 q43 4 80 23.5t64.5 51.5t44 75t16.5 92q0 53 -22.5 98t-60.5 78t-90.5 51.5t-111.5 18.5q-29 0 -48 -1l-38 -2q-18 -1 -38.5 -4.5t-47.5 -5.5v-1294h-295v1470q82 14 145.5 23.5t115.5 14.5t101.5 7.5t104.5 2.5q121 0 227.5 -31t186 -89.5t126 -143t46.5 -193.5z" />
<glyph unicode="S" horiz-adv-x="1181" d="M592 1311q-92 0 -147.5 -45t-55.5 -115t52.5 -121t129 -96t167.5 -92t168 -108.5t129 -145.5t52 -203q0 -98 -37.5 -175t-106.5 -129t-165 -80t-213 -28q-88 0 -203.5 23.5t-257.5 89.5l78 190q111 -53 208 -72.5t175 -19.5q55 0 101.5 15.5t80 42t52 61.5t18.5 76 q0 74 -51 127t-129 99t-167 91t-167 103.5t-129 137.5t-51 189q0 100 36 174t97 121t143 71t174 24q47 0 91.5 -3.5t92.5 -10.5t100 -20.5t118 -33.5l-76 -186q-92 27 -165.5 38t-141.5 11z" />
<glyph unicode="T" horiz-adv-x="1093" d="M10 1278v211h1069v-211h-389v-1278h-291v1278h-389z" />
<glyph unicode="U" horiz-adv-x="1488" d="M766 -29q-137 0 -247.5 39t-187.5 115t-119 187.5t-42 256.5v920h289v-950q0 -84 23.5 -149.5t64.5 -112t97 -71t122 -24.5t122 24.5t97 71t64.5 112t23.5 149.5v950h287v-920q0 -135 -41 -245.5t-118 -189.5t-187.5 -121t-247.5 -42z" />
<glyph unicode="V" horiz-adv-x="1366" d="M539 0l-523 1489h312l350 -1131l14 -77l15 75l350 1133h301l-518 -1489h-301z" />
<glyph unicode="W" horiz-adv-x="2168" d="M1251 1468l262 -1071l21 -114l16 110l277 1096h278l-419 -1489h-289l-291 1096l-19 84l-16 -82l-291 -1098h-295l-422 1489h285l277 -1094l16 -112l23 112l266 1073h321z" />
<glyph unicode="X" horiz-adv-x="1353" d="M82 1489h324l251 -490l21 -63l16 63l252 490h322l-445 -735l467 -754h-317zM373 0h-314l406 666q18 -27 42.5 -70t40.5 -93q16 -54 16 -109q0 -52 -25 -97z" />
<glyph unicode="Y" horiz-adv-x="1431" d="M848 694v-694h-283v659l-514 830h320zM1028 1489h315l-434 -717q-20 27 -43.5 69t-39.5 92q-16 54 -16 108q0 52 26 100z" />
<glyph unicode="Z" horiz-adv-x="1253" d="M160 1489h1036v-121l-729 -1132l-33 -31l47 6h733v-211h-1118v121l727 1132l33 35l-49 -6h-647v207z" />
<glyph unicode="[" horiz-adv-x="915" d="M250 1579h620v-213h-350v-1561h350v-213h-620v1987z" />
<glyph unicode="\" horiz-adv-x="679" d="M471 -127l-498 1616h248l498 -1616h-248z" />
<glyph unicode="]" horiz-adv-x="915" d="M702 -408h-620v213h350v1561h-350v213h620v-1987z" />
<glyph unicode="^" horiz-adv-x="1286" d="M375 430h-264l432 1059h207l432 -1059h-260l-260 682l-15 64l-14 -64z" />
<glyph unicode="_" horiz-adv-x="1017" d="M55 -195v195h908v-195h-908z" />
<glyph unicode="`" horiz-adv-x="401" d="M41 1489h219l135 -256q-61 -16 -114.5 -3t-92.5 62z" />
<glyph unicode="a" horiz-adv-x="1110" d="M815 0q-29 16 -46 44t-30 58l-6 41l-24 -34q-92 -84 -162 -110t-148 -26q-74 0 -132 26t-100 69t-63.5 98t-21.5 117q0 63 26.5 122.5t91 107.5t173 82t270.5 46q-10 -72 -42 -125t-97 -65q-78 -12 -113 -51.5t-35 -90.5q0 -53 38 -89t91 -36q59 0 119 40t113 104v309 q0 106 -58.5 169.5t-166.5 63.5q-51 0 -109.5 -10t-130.5 -37l-70 181q92 41 188.5 59t168.5 18q219 0 336.5 -113.5t117.5 -330.5v-379q0 -57 7.5 -121.5t25.5 -136.5h-211z" />
<glyph unicode="b" horiz-adv-x="1249" d="M676 870q-35 -2 -59.5 11.5t-43 35t-35 51t-30.5 60.5q59 25 119.5 37t113.5 12q98 0 176 -45t132.5 -117.5t84 -164t29.5 -183.5q0 -125 -39 -234.5t-112.5 -190.5t-178 -127t-233.5 -46q-113 0 -219.5 25.5t-230.5 91.5v1466h284v-1351q47 -12 86 -16.5t80 -4.5 q59 0 107.5 29t82 80t51 122.5t17.5 155.5q0 49 -9 103.5t-30.5 99.5t-56.5 74q-32 27 -79 27q-4 -1 -7 -1z" />
<glyph unicode="c" horiz-adv-x="880" d="M606 1085q55 0 121 -11t127 -34l-70 -190q-49 12 -96 18t-82 6q-111 0 -178.5 -92t-67.5 -252q0 -162 68 -254t178 -92q43 0 92.5 11.5t114.5 37.5l70 -188q-80 -37 -150.5 -54.5t-126.5 -17.5q-106 0 -205.5 32t-175 99.5t-122 173t-46.5 252.5q0 139 46.5 244 t122 173.5t175 103t205.5 34.5z" />
<glyph unicode="d" horiz-adv-x="1267" d="M535 -27q-111 0 -199 42t-147.5 118t-91 179.5t-31.5 224.5q0 109 36.5 207t99 171.5t144.5 117.5t170 44q53 0 103.5 -7t130.5 -30q-29 -72 -66 -115.5t-88 -47.5q-63 -4 -106.5 -31t-70 -71t-38.5 -105.5t-12 -132.5q0 -72 14 -135.5t42 -111.5t69 -77t92 -29 q113 0 237 144v1224h285v-1294q0 -57 7 -121.5t24 -136.5h-219q-27 14 -44.5 41t-27.5 55l-10 47l-35 -45q-80 -72 -144.5 -98.5t-123.5 -26.5z" />
<glyph unicode="e" horiz-adv-x="1155" d="M795 649q2 18 2 35q0 28 -6 55q-10 43 -34 76t-59.5 52.5t-83.5 19.5q-43 0 -85 -18.5t-76.5 -58.5t-56 -102.5t-21.5 -150.5q0 -178 80 -275.5t209 -97.5q72 0 140 17.5t159 58.5l71 -190q-111 -53 -208 -75t-193 -22q-141 0 -242.5 51.5t-168 132.5t-98.5 183t-32 207 q0 127 42 227t115 169t171 105.5t209 36.5q113 0 207 -45t151 -124.5t71 -191.5q3 -25 3 -52q0 -90 -35 -191h-573q23 72 64.5 120t94.5 48h183z" />
<glyph unicode="f" horiz-adv-x="894" d="M215 856h-170v162l170 41v57q0 100 32 183t90 141.5t141 90.5t186 32q51 0 121.5 -13.5t150.5 -48.5l-64 -182q-59 16 -101 24.5t-77 8.5q-100 0 -154.5 -64.5t-54.5 -171.5v-1116h-270v856zM850 1059v-203h-295q10 33 26.5 70t41 65.5t58.5 48t79 19.5h90z" />
<glyph unicode="g" horiz-adv-x="1210" d="M389 492q0 -49 8.5 -102.5t27.5 -97.5t53 -72q31 -26 80 -26q4 0 7 1h6q57 0 91 -40q35 -42 69 -102q-57 -31 -117.5 -51t-113.5 -20q-98 0 -175 45t-131.5 117.5t-82 163.5t-27.5 184q0 123 39 230t112.5 187t181 127t245.5 47q43 0 86 -2t92 -9t108.5 -19.5 t134.5 -30.5v-1022q0 -141 -43 -238.5t-116.5 -158t-172 -88t-210.5 -27.5q-80 0 -182.5 16.5t-223.5 69.5l72 190q104 -41 178 -56t139 -15q57 0 107.5 18.5t89.5 53t61.5 88t22.5 124.5v879q-41 10 -75 13t-56 3q-70 0 -123 -27.5t-89 -77.5t-54.5 -120.5t-18.5 -154.5z " />
<glyph unicode="h" horiz-adv-x="1245" d="M150 0v1552h284v-1552h-284zM811 752q0 51 -21.5 83.5t-68.5 32.5q-18 0 -30.5 -4t-39.5 -6q-23 -2 -43 9.5t-37.5 31t-33 44t-29.5 52.5q100 57 173 73.5t130 16.5q53 0 104.5 -20.5t91.5 -61t64.5 -102t24.5 -145.5v-756h-285v752z" />
<glyph unicode="i" horiz-adv-x="573" d="M143 0v1059h287v-1059h-287zM119 1366q0 72 48 122t120 50t120 -50t48 -122t-48.5 -120t-119.5 -48q-72 0 -120 48t-48 120z" />
<glyph unicode="j" horiz-adv-x="604" d="M455 98q0 -96 -19.5 -174t-65.5 -148.5t-124 -139t-197 -146.5l-121 150q76 66 123 116.5t74 102t36 108t9 131.5v961h285v-961zM145 1366q0 72 48.5 122t119.5 50q72 0 121 -50t49 -122t-49 -120t-121 -48t-120 48t-48 120z" />
<glyph unicode="k" horiz-adv-x="1277" d="M434 0h-284v1552h284v-1552zM834 692l407 -692h-315l-242 477l-14 49l-29 -41l-111 -116q-8 50 -8 97q0 86 27 161q41 117 115 209l184 223h330z" />
<glyph unicode="l" horiz-adv-x="577" d="M438 0h-284v1552h284v-1552z" />
<glyph unicode="m" horiz-adv-x="1904" d="M360 1059q49 -55 64.5 -109.5t15.5 -115.5v-834h-286v801q0 57 -7.5 121.5t-23.5 136.5h237zM807 752q0 51 -18.5 83.5t-71.5 32.5q-18 0 -36.5 -4t-43.5 -6t-46.5 9.5t-40 32t-34.5 46t-31 53.5q111 45 185.5 65.5t146.5 20.5q53 0 103.5 -20.5t88.5 -61t61.5 -102 t23.5 -145.5v-756h-287v752zM1460 752q0 51 -22.5 83.5t-79.5 32.5q-18 0 -40 -5t-48 -7q-25 -2 -47.5 9.5t-42 32t-36 46t-30.5 53.5q113 47 190.5 67.5t149.5 20.5q53 0 105.5 -20.5t93.5 -61t66.5 -102t25.5 -145.5v-756h-285v752z" />
<glyph unicode="n" horiz-adv-x="1183" d="M313 1059q49 -55 65.5 -109.5t16.5 -115.5v-834h-286v801q0 119 -33 258h237zM770 752q0 51 -20.5 83.5t-73.5 32.5q-20 0 -39 -5t-47 -7q-25 -2 -45.5 10.5t-38 32t-32.5 43.5l-30 49q102 53 178 73.5t148 20.5q53 0 104.5 -20.5t91.5 -61t64.5 -102t24.5 -145.5v-756 h-285v752z" />
<glyph unicode="o" horiz-adv-x="1249" d="M1167 530q0 -131 -48 -234t-124.5 -175t-176 -110t-200.5 -38q-109 0 -208 37t-174.5 107.5t-120.5 175t-45 237.5q0 143 52 249t133 173.5t178 100t185 32.5q123 0 223.5 -40.5t173 -114.5t112.5 -175.5t40 -224.5zM618 182q59 0 105.5 28t77 75t46 110.5t15.5 134.5 q0 72 -15.5 134.5t-46 109.5t-76.5 75t-106 28q-59 0 -105 -28t-76.5 -75t-47 -109.5t-16.5 -134.5q0 -78 17.5 -141t49 -109.5t77.5 -72t101 -25.5z" />
<glyph unicode="p" horiz-adv-x="1271" d="M723 1085q111 0 198 -43t147 -117.5t92 -178t32 -224.5q0 -109 -37 -207t-99.5 -171.5t-144.5 -117.5t-170 -44q-53 0 -103 7t-130 29q29 72 64.5 116t86.5 48q127 8 178.5 101.5t51.5 238.5q0 72 -15.5 135.5t-43 111.5t-67.5 76.5t-91 28.5q-115 0 -238 -143v-1225 h-284v1295q0 57 -7.5 121.5t-23.5 136.5h219q27 -16 45 -45t31 -60l6 -41l31 41q82 76 146.5 103.5t125.5 27.5z" />
<glyph unicode="q" horiz-adv-x="1239" d="M575 195h6q58 0 92 -41q36 -43 70 -101q-59 -31 -119.5 -51t-113.5 -20q-98 0 -175 45t-130 117.5t-82 163.5t-29 184q0 123 39 230t114 187t182.5 127t244.5 47q43 0 85 -2t91 -9t108.5 -19.5t137.5 -30.5v-1516h-279v1350q-41 10 -75.5 13t-57.5 3q-70 0 -123 -27.5 t-89 -77.5t-54.5 -121t-18.5 -154q0 -49 8.5 -102.5t28 -97.5t52.5 -72q31 -26 80 -26q3 1 7 1z" />
<glyph unicode="r" horiz-adv-x="800" d="M319 1059q16 -14 36 -56t28 -96l4 -49l21 49q41 82 107.5 127t131.5 45q59 0 133 -24l-32 -232q-41 12 -69 16.5t-52 4.5q-53 0 -94 -26.5t-70 -73t-44.5 -111t-15.5 -139.5v-494h-268v801q0 57 -7 121.5t-26 136.5h217z" />
<glyph unicode="s" horiz-adv-x="892" d="M127 256q96 -37 170 -51.5t139 -14.5q76 0 111 32t35 71q0 45 -37 75.5t-92.5 57.5t-119 53.5t-118.5 64.5t-92 92t-37 136q0 49 19.5 103.5t64.5 98.5t117.5 73.5t177.5 29.5q70 0 142.5 -10t170.5 -43l-65 -184q-80 20 -129 27t-101 7q-59 0 -93 -23.5t-34 -66.5 t37 -73.5t92 -57.5l119 -55q63 -29 118.5 -67.5t92.5 -93t37 -134.5q0 -74 -30.5 -134t-82 -102t-118 -64.5t-138.5 -22.5q-80 0 -182 14t-240 72z" />
<glyph unicode="t" horiz-adv-x="931" d="M213 856h-170v162l170 41v252l270 88v-993q0 -104 44 -163t116 -59q29 0 67 6.5t91 24.5l59 -186q-78 -27 -136 -41.5t-110 -14.5q-197 0 -299 111t-102 322v450zM758 856q-45 0 -79 19.5t-58.5 48t-41 64.5t-26.5 71h297v-203h-92z" />
<glyph unicode="u" horiz-adv-x="1255" d="M874 0q-47 55 -63 109.5t-16 115.5v834h286v-801q0 -119 33 -258h-240zM420 307q0 -51 20.5 -84t73.5 -33q20 0 38.5 5.5t47.5 7.5q25 2 44.5 -10.5t37.5 -32t34 -43.5l29 -49q-102 -53 -177.5 -74t-147.5 -21q-53 0 -104.5 20.5t-91.5 61.5t-64.5 102.5t-24.5 145.5v756 h285v-752z" />
<glyph unicode="v" horiz-adv-x="1120" d="M410 0l-398 1059h301l238 -750l14 -61l15 61l235 750h297l-397 -1059h-305z" />
<glyph unicode="w" horiz-adv-x="1785" d="M1094 0l-375 1059h303l213 -750l14 -61l15 61l211 750h297l-373 -1059h-305zM713 0h-299l-373 1059h301l213 -750l14 -61l15 61l151 402q25 -45 46.5 -108.5t32.5 -136.5q8 -50 8 -101q0 -23 -2 -47q-5 -75 -32 -140z" />
<glyph unicode="x" horiz-adv-x="1052" d="M23 1059h325l160 -297l12 -43l17 43l161 297h312l-351 -535l371 -524h-319l-161 256l-169 256zM313 0h-309l315 451q20 -25 42 -60t35.5 -77t13.5 -87t-21 -88z" />
<glyph unicode="y" horiz-adv-x="1228" d="M260 -299q53 0 92 24.5t70 71.5t56.5 117l56.5 162l303 983h292l-374 -1036q-51 -133 -96.5 -232.5t-98.5 -165t-124.5 -99.5t-176.5 -34q-41 2 -89 9t-97 30l65 184q35 -10 63.5 -12t57.5 -2zM481 575q20 -68 23 -145v-22q0 -66 -10 -130q-12 -75 -34 -141.5t-48 -109.5 l-381 1032h307z" />
<glyph unicode="z" horiz-adv-x="970" d="M117 1059h770v-121l-465 -709l-31 -34l45 6h455v-201h-830v121l469 713l31 34l-43 -6h-401v197z" />
<glyph unicode="{" horiz-adv-x="825" d="M332 870q8 129 31.5 231.5t65.5 185.5t106.5 151.5t158.5 132.5l135 -133q-66 -57 -109.5 -112.5t-72.5 -119t-44 -138.5t-21 -169q-6 -86 -47 -149.5t-107 -106.5l-49 -22l47 -21q66 -43 107.5 -106.5t48.5 -149.5q6 -102 21 -182t44 -146.5t73 -125t109 -115.5 l-135 -135q-96 66 -162.5 138t-108.5 160.5t-64.5 197t-30.5 247.5q-6 72 -63.5 114t-135.5 56v147q78 14 137.5 56t65.5 114z" />
<glyph unicode="|" horiz-adv-x="649" d="M236 -600v2261h258v-2261h-258z" />
<glyph unicode="}" horiz-adv-x="876" d="M653 870q6 -72 65.5 -113.5t137.5 -56.5v-147q-78 -14 -135 -56t-64 -114q-8 -139 -30.5 -247.5t-64.5 -197t-108.5 -161t-162.5 -137.5l-135 135q66 57 109.5 115.5t72.5 125t44 146.5t21 182q6 86 47.5 148.5t106.5 105.5l51 23l-53 22q-66 43 -105.5 106.5 t-46.5 149.5q-6 94 -21 169t-44 138.5t-74 118.5t-108 113l135 133q94 -63 158.5 -132t106.5 -152t64.5 -185.5t32.5 -231.5z" />
<glyph unicode="~" horiz-adv-x="1257" d="M129 483q2 78 30.5 139.5t72.5 102.5t100.5 63.5t116.5 22.5q72 0 126 -23.5t99 -51.5l82 -50q37 -23 73 -22q41 0 67 34.5t34 89.5l235 -16q-4 -88 -34.5 -149.5t-74.5 -101.5t-96.5 -58.5t-97.5 -18.5q-82 0 -136 22.5t-95 50.5l-75 51q-34 24 -73 24 q-35 0 -69.5 -26.5t-42.5 -98.5z" />
<glyph unicode="&#xa1;" horiz-adv-x="718" d="M96 -430l39 1018h205l43 -1018h-287zM66 920q0 72 49 119.5t121 47.5t119.5 -48t47.5 -119q0 -72 -48 -122t-119 -50q-37 0 -68 13t-53.5 36.5t-35.5 55.5t-13 67z" />
<glyph unicode="&#xa2;" horiz-adv-x="874" d="M670 1278q45 -4 92 -14.5t92 -26.5l-70 -190q-49 12 -96 18t-82 6q-111 0 -178.5 -92t-67.5 -252q0 -162 68 -254t178 -92q43 0 92.5 11t114.5 38l70 -188q-59 -29 -112.5 -44.5t-100.5 -23.5v-203h-201v211q-86 18 -161 59.5t-130 108t-88 160.5t-33 217q0 117 33 208 t88 158.5t130 110.5t161 62v200h201v-188z" />
<glyph unicode="&#xa3;" horiz-adv-x="1050" d="M571 403q-10 -45 -24.5 -73.5t-36.5 -63.5l-37 -41l45 4h471v-229h-919v156q111 55 181.5 141t70.5 199q0 31 -1.5 60.5t-5.5 68.5h-202v198h170q-8 47 -13.5 103.5t-5.5 122.5q0 104 36 181t100.5 127t152.5 75.5t195 25.5q72 0 151.5 -16.5t175.5 -59.5l-71 -194 q-78 33 -145.5 45t-110.5 12q-100 0 -155.5 -50t-55.5 -148q0 -92 11 -177l21 -162q10 -79 13 -154t-11 -151zM823 625q-47 0 -78.5 18.5t-54 48t-37 64.5t-24.5 67h329v-198h-135z" />
<glyph unicode="&#xa4;" horiz-adv-x="1050" d="M733 696q0 53 -16.5 101.5t-45 85.5t-67.5 58.5t-82 21.5q-41 0 -80 -19.5t-67.5 -54.5t-46 -84t-17.5 -109q0 -59 17.5 -108t46 -84t67.5 -54.5t80 -19.5q43 0 82 21.5t67.5 58.5t45 85t16.5 101zM909 698q0 -74 -18.5 -137t-42.5 -98l162 -150l-103 -108l-157 145 q-35 -29 -94.5 -50t-131.5 -21q-68 0 -123 20t-96 49l-151 -145l-111 114l160 146q-27 35 -48.5 95t-21.5 140q0 78 21.5 137.5t48.5 94.5l-160 145l111 115l151 -146q41 29 96.5 49.5t122.5 20.5q72 0 131.5 -21.5t94.5 -50.5l157 146l103 -109l-162 -149q25 -35 43 -96.5 t18 -135.5z" />
<glyph unicode="&#xa5;" horiz-adv-x="1351" d="M805 694v-41h293v-137h-293v-117h293v-137h-293v-262h-283v262h-295v137h295v117h-295v137h295v6l-514 830h320zM985 1489h315l-434 -717q-20 27 -43.5 69t-39 92t-16.5 104.5t26 103.5z" />
<glyph unicode="&#xa6;" horiz-adv-x="520" d="M139 793v868h258v-868h-258zM139 -600v889h258v-889h-258z" />
<glyph unicode="&#xa7;" horiz-adv-x="1024" d="M967 666q0 -66 -34 -118t-91 -89l-47 -21l41 -22q49 -41 80.5 -95.5t31.5 -127.5q0 -68 -34.5 -122.5t-93 -93t-137.5 -60t-167 -21.5q-35 0 -87 4t-111.5 13t-123 25.5t-118.5 43.5l71 172q92 -35 180.5 -53.5t164.5 -18.5q88 0 149 24.5t61 83.5q0 55 -45 91t-113.5 66 t-148.5 58.5t-148.5 69.5t-113.5 99.5t-45 146.5q0 59 40 113.5t99 95.5l43 18l-41 21q-55 41 -89 96t-34 133q0 57 31 108.5t84 88.5t128 58.5t163 21.5q70 0 153 -11.5t187 -42.5l-72 -172q-78 23 -135 31t-108 8q-88 0 -136.5 -22.5t-48.5 -65.5q0 -55 45 -92t114 -66.5 t148.5 -58.5t148.5 -70t114 -100t45 -147zM729 676q0 33 -25.5 57.5t-68.5 46t-97 41.5l-112 43q-53 -33 -76.5 -62.5t-23.5 -70.5q0 -37 26.5 -64.5t71.5 -51t101 -45.5l116 -46q88 68 88 152z" />
<glyph unicode="&#xa8;" horiz-adv-x="1081" d="M219 1372q0 53 38 91t91 38t92 -38t39 -91t-39 -91t-92 -38t-91 38t-38 91zM618 1372q0 53 38 91t92 38q53 0 92 -38t39 -91t-39 -91t-92 -38t-91.5 38t-38.5 91z" />
<glyph unicode="&#xa9;" horiz-adv-x="1474" d="M731 1413q152 0 277 -51t215 -141.5t139 -216t49 -273.5q0 -139 -51 -264t-141.5 -219t-215 -149.5t-272.5 -55.5q-154 0 -279.5 51t-216 142.5t-140.5 217.5t-50 277q0 137 51 260t142.5 217.5t217 149.5t275.5 55zM731 1255q-104 0 -195.5 -36.5t-158 -106.5 t-105.5 -167t-39 -220q0 -121 39 -217t105.5 -164t158 -104.5t195.5 -36.5q102 0 191.5 36.5t156 104.5t105.5 166t39 221q0 119 -39 216t-105.5 166t-156 105.5t-191.5 36.5zM772 360q-74 0 -139.5 25t-112.5 72t-74.5 115.5t-27.5 158.5q0 88 27.5 157.5t75.5 116 t112.5 71t138.5 24.5q80 0 170 -29l-45 -131q-37 12 -65.5 17.5t-59.5 5.5q-78 0 -126 -67t-48 -165q0 -100 48 -167.5t126 -67.5q29 0 63.5 6t82.5 28l43 -122q-57 -29 -106.5 -38.5t-82.5 -9.5z" />
<glyph unicode="&#xaa;" d="M705 864q0 -86 6 -146.5t16 -99.5h-143q-16 16 -26.5 34t-20.5 40l-2 25l-17 -25q-39 -41 -92 -64.5t-117 -23.5q-100 0 -168.5 52.5t-68.5 150.5q0 100 89 160.5t310 85.5q-2 -12 -8 -33t-17.5 -42.5t-30 -37.5t-46.5 -22q-59 -10 -84 -37t-25 -64q0 -35 23.5 -59.5 t64.5 -24.5q47 0 92 20.5t82 67.5v258q0 86 -48 121t-122 35q-39 0 -81 -7t-87 -24l-41 121q70 31 129.5 40t106.5 9q162 0 244 -80t82 -225v-205z" />
<glyph unicode="&#xab;" horiz-adv-x="1255" d="M98 528l477 439l113 -111l-258 -328l258 -327l-113 -109zM659 528l478 439l112 -111l-258 -328l258 -327l-112 -109z" />
<glyph unicode="&#xac;" horiz-adv-x="1210" d="M1118 932v-613h-219v412h-811v201h1030z" />
<glyph unicode="&#xad;" horiz-adv-x="768" d="M92 522v201h619v-201h-619z" />
<glyph unicode="&#xae;" horiz-adv-x="1474" d="M731 1413q152 0 277 -51t215 -141.5t139 -216t49 -273.5q0 -139 -51 -264t-141.5 -219t-215 -149.5t-272.5 -55.5q-154 0 -279.5 51t-216 142.5t-140.5 217.5t-50 277q0 137 51 260t142.5 217.5t217 149.5t275.5 55zM731 1255q-104 0 -195.5 -36.5t-158 -106.5 t-105.5 -167t-39 -220q0 -121 39 -217t105.5 -164t158 -104.5t195.5 -36.5q102 0 191.5 36.5t156 104.5t105.5 166t39 221q0 119 -39 216t-105.5 166t-156 105.5t-191.5 36.5zM1020 883q0 -55 -24.5 -100.5t-73.5 -71.5l-45 -9l38 -20q29 -23 44.5 -54.5t26.5 -70.5l24 -82 q12 -43 32 -88h-176q-18 41 -27 84l-19 82q-9 39 -27.5 68.5t-55.5 44.5h-49q8 41 28.5 76.5t65.5 45.5q35 10 49.5 35t14.5 60q0 84 -121 84q-18 0 -26.5 -1t-36.5 -5v-574h-168v680q59 14 118.5 22.5t112.5 8.5q131 0 213 -57.5t82 -157.5z" />
<glyph unicode="&#xaf;" horiz-adv-x="1024" d="M225 1235v172h619v-172h-619z" />
<glyph unicode="&#xb0;" horiz-adv-x="690" d="M213 1276q0 -78 43 -118t102 -40t103.5 40t44.5 118t-44 119t-104 41q-59 0 -102 -41t-43 -119zM39 1276q0 68 26.5 124t70.5 97t102.5 63.5t119.5 22.5t120 -21.5t103 -61.5t70.5 -97t26.5 -127q0 -68 -26.5 -124t-70.5 -97t-102.5 -63.5t-120.5 -22.5 q-61 0 -119.5 21.5t-102.5 61.5t-70.5 96t-26.5 128z" />
<glyph unicode="&#xb1;" horiz-adv-x="1163" d="M96 784h369v293h217v-293h373v-196h-373v-297h-217v297h-369v196zM96 0v201h959v-201h-959z" />
<glyph unicode="&#xb2;" horiz-adv-x="823" d="M690 1286q0 -74 -32.5 -136.5t-80 -119.5t-100.5 -112.5t-94 -114.5l-18 -21l26 4h293v-151h-543v92q53 94 118 170l120 140q55 65 92 121t37 114q0 45 -35 69.5t-94 24.5q-35 0 -70 -8t-67 -23l-58 121q55 29 116.5 40t111.5 11q121 0 199.5 -57.5t78.5 -163.5z" />
<glyph unicode="&#xb3;" horiz-adv-x="780" d="M629 1307q0 -66 -43 -117t-115 -84q35 -8 68.5 -27.5t59.5 -48.5t42 -66.5t16 -82.5q0 -61 -25.5 -110.5t-70.5 -83.5t-106.5 -52.5t-130.5 -18.5q-63 0 -122 19.5t-89 38.5l45 125q37 -16 80 -27.5t84 -11.5q70 0 110.5 37t40.5 90q0 66 -49 100.5t-154 34.5l-14 115 l66 26q55 23 88.5 52.5t33.5 76.5q0 25 -25.5 47.5t-70.5 22.5q-66 0 -151 -29l-52 121q59 29 111.5 40t103.5 11q113 0 191 -48t78 -150z" />
<glyph unicode="&#xb4;" horiz-adv-x="659" d="M408 1321q-31 -37 -71 -57.5t-82 -29.5t-81 -8t-65 7l176 283h284z" />
<glyph unicode="&#xb5;" horiz-adv-x="1132" d="M799 106q-45 -63 -104.5 -94.5t-151.5 -31.5q-35 0 -77 12t-75 37l-29 34l3 -49v-446h-250v1491h262v-629q0 -123 51 -186.5t133 -63.5q96 0 155.5 64.5t59.5 163.5v651h264v-723q0 -86 25 -121t88 -31l25 -174q-35 -14 -80 -20t-68 -6q-53 0 -112.5 29.5t-90.5 95.5 l-10 36z" />
<glyph unicode="&#x3bc;" horiz-adv-x="1132" d="M799 106q-45 -63 -104.5 -94.5t-151.5 -31.5q-35 0 -77 12t-75 37l-29 34l3 -49v-446h-250v1491h262v-629q0 -123 51 -186.5t133 -63.5q96 0 155.5 64.5t59.5 163.5v651h264v-723q0 -86 25 -121t88 -31l25 -174q-35 -14 -80 -20t-68 -6q-53 0 -112.5 29.5t-90.5 95.5 l-10 36z" />
<glyph unicode="&#xb6;" horiz-adv-x="1247" d="M666 623l-4 2q-92 8 -174 41.5t-142.5 91t-96.5 135.5t-36 172q0 88 34 170t98.5 144.5t159.5 99.5t218 37q55 0 104.5 -2.5t96.5 -7.5t97 -12t107 -19v-1536h-149v1409q-47 8 -87 11t-77 5v-1425h-149v684z" />
<glyph unicode="&#xb7;" horiz-adv-x="626" d="M141 623q0 35 13.5 66.5t36 55t53 37t67.5 13.5q72 0 120 -50.5t48 -121.5q0 -72 -48 -120t-120 -48t-121 48t-49 120z" />
<glyph unicode="&#xb8;" horiz-adv-x="1024" d="M596 6l-23 -94q61 -14 113.5 -55t52.5 -109q0 -47 -23.5 -81t-60.5 -57.5t-83 -34.5t-93 -11q-72 0 -166 41l37 112q39 -14 69 -19t60 -5q35 0 58.5 13t23.5 36q0 31 -40 47t-111 25l47 180z" />
<glyph unicode="&#xb9;" horiz-adv-x="653" d="M342 633v624l-115 -55l-71 131l290 156h99v-856h-203z" />
<glyph unicode="&#xba;" horiz-adv-x="880" d="M438 1374q90 0 159 -28.5t115 -80t69.5 -122t23.5 -154.5q0 -78 -22.5 -147.5t-67.5 -122.5t-114 -85t-163 -32q-168 0 -267 100.5t-99 286.5q0 80 23.5 149.5t70.5 122t114.5 83t157.5 30.5zM438 745q90 0 134 69t44 175q0 109 -45 176.5t-133 67.5q-84 0 -130 -68.5 t-46 -175.5q0 -49 10.5 -93t32 -78t54 -53.5t79.5 -19.5z" />
<glyph unicode="&#xbb;" horiz-adv-x="1255" d="M758 92l-113 109l258 327l-258 328l113 111l477 -439zM199 92l-113 109l258 327l-258 328l113 111l477 -439z" />
<glyph unicode="&#xbc;" horiz-adv-x="1429" d="M135 0l893 1489h221l-893 -1489h-221zM1075 866h191v-557h98v-141h-98v-168h-172v623l-213 -314h41q25 0 44 -13t33.5 -33.5t24.5 -46.5l18 -48h-350v125zM219 633v624l-115 -55l-71 131l291 156h98v-856h-203z" />
<glyph unicode="&#xbd;" horiz-adv-x="1562" d="M135 0l893 1489h221l-893 -1489h-221zM219 633v624l-115 -55l-71 131l291 156h98v-856h-203zM1413 651q0 -74 -32.5 -135t-80 -117.5t-99.5 -112t-93 -114.5l-21 -25l35 5h285v-152h-543v92q53 94 118 170l120 140q55 65 92 121.5t37 113.5q0 45 -35 69.5t-94 24.5 q-35 0 -70 -8t-67 -23l-58 121q55 29 116.5 40t111.5 11q121 0 199.5 -57.5t78.5 -163.5z" />
<glyph unicode="&#xbe;" horiz-adv-x="1466" d="M209 0l893 1489h221l-893 -1489h-221zM1149 866h190v-557h99v-141h-99v-168h-172v623l-213 -314h41q25 0 44.5 -13t33.5 -33.5t24.5 -46.5t18.5 -48h-350v125zM567 1307q0 -66 -43 -117t-114 -84q35 -8 68.5 -27.5t59 -48.5t42 -66.5t16.5 -82.5q0 -61 -25.5 -110.5 t-70.5 -83.5t-106.5 -52.5t-131.5 -18.5q-63 0 -121.5 19.5t-89.5 38.5l45 125q37 -16 80 -27.5t84 -11.5q70 0 111 37t41 90q0 66 -49.5 100.5t-153.5 34.5l-14 115l65 26q55 23 89 52.5t34 76.5q0 25 -25.5 47.5t-70.5 22.5q-66 0 -152 -29l-51 121q59 29 111.5 40 t103.5 11q113 0 190.5 -48t77.5 -150z" />
<glyph unicode="&#xbf;" horiz-adv-x="1193" d="M645 -453q-102 0 -188 22.5t-147.5 64.5t-96.5 104.5t-35 142.5q0 72 30 133.5t73 117.5t95 108.5t95 106.5t72.5 112.5t29.5 126.5h242q0 -94 -25.5 -166t-63.5 -129.5t-83 -105.5l-83 -92q-38 -44 -63.5 -87t-25.5 -94q0 -70 53.5 -111t141.5 -41q57 0 116.5 11.5 t157.5 52.5l74 -193q-115 -51 -199 -67.5t-170 -16.5zM864 918q0 -35 -13 -67t-35.5 -55.5t-53.5 -37t-68 -13.5q-72 0 -120 50.5t-48 122.5t48.5 119.5t119.5 47.5q72 0 121 -47.5t49 -119.5z" />
<glyph unicode="&#xc0;" horiz-adv-x="1406" d="M430 1823h272l152 -256q-27 -6 -66.5 -7t-82.5 8t-83 30.5t-67 56.5zM426 326l-109 -326h-288l534 1489h287l534 -1489h-303l-368 1108l-17 76l-18 -80l-174 -531l-25 -41l31 5h156q45 0 77.5 -20.5t57 -51.5t42 -69t27.5 -70h-444z" />
<glyph unicode="&#xc1;" horiz-adv-x="1406" d="M872 1655q-31 -35 -71.5 -55.5t-82.5 -29.5t-81 -9t-66 6l177 256h272zM422 326l-109 -326h-288l534 1489h287l534 -1489h-303l-368 1108l-17 76l-18 -80l-174 -531l-25 -41l31 5h156q45 0 77.5 -20.5t57 -51.5t42 -69t27.5 -70h-444z" />
<glyph unicode="&#xc2;" horiz-adv-x="1406" d="M803 1823l219 -238l-166 -37l-160 115l-155 -115l-164 37l215 238h211zM426 326l-109 -326h-288l534 1489h287l534 -1489h-303l-368 1108l-17 76l-18 -80l-174 -531l-25 -41l31 5h156q45 0 77.5 -20.5t57 -51.5t42 -69t27.5 -70h-444z" />
<glyph unicode="&#xc3;" horiz-adv-x="1406" d="M385 1604q2 57 19.5 102t46 75.5t64.5 47t73 16.5q45 0 79.5 -17.5t63.5 -36.5l52 -37q24 -17 46 -17q27 0 43.5 25.5t20.5 66.5l149 -12q-4 -66 -23.5 -111t-47 -74.5t-60 -43t-61.5 -13.5q-51 0 -86 17.5t-61 36.5l-47 37q-22 17 -46 17q-23 0 -45 -19t-26 -73z M426 326l-109 -326h-288l534 1489h287l534 -1489h-303l-368 1108l-17 76l-18 -80l-174 -531l-25 -41l31 5h156q45 0 77.5 -20.5t57 -51.5t42 -69t27.5 -70h-444z" />
<glyph unicode="&#xc4;" horiz-adv-x="1406" d="M373 1720q0 53 38 91t91 38t92 -37.5t39 -91.5q0 -53 -39 -91t-92 -38t-91 38t-38 91zM772 1720q0 53 38 91t91 38t92 -37.5t39 -91.5q0 -53 -39 -91t-92 -38t-91 38t-38 91zM426 326l-109 -326h-288l534 1489h287l534 -1489h-303l-368 1108l-17 76l-18 -80l-174 -531 l-25 -41l31 5h156q45 0 77.5 -20.5t57 -51.5t42 -69t27.5 -70h-444z" />
<glyph unicode="&#xc5;" horiz-adv-x="1406" d="M428 326l-109 -326h-288l532 1485q-78 55 -78 147q0 43 17.5 80t48.5 63.5t72 42t90 15.5q98 0 159.5 -54.5t61.5 -144.5q0 -47 -21.5 -86t-58.5 -65l532 -1483h-303l-370 1118l-15 58l-14 -60l-178 -543l-25 -41l27 5h160q45 0 77.5 -20.5t57 -51.5t42 -69t27.5 -70 h-444zM711 1556q37 0 56 23t19 57q0 35 -19 58.5t-56 23.5q-35 0 -53.5 -23.5t-18.5 -60.5q0 -29 18.5 -53.5t53.5 -24.5z" />
<glyph unicode="&#xc6;" horiz-adv-x="1996" d="M446 326l-157 -326h-289l762 1489h967v-211h-611l160 -1067h596v-211h-838l-170 1130l-6 76l-29 -71l-270 -562l-31 -41l41 5h138q45 0 77.5 -20.5t57 -51.5t42 -69t27.5 -70h-467zM1282 678q12 37 29.5 75t45 66.5t66.5 47t93 18.5h233v-207h-467z" />
<glyph unicode="&#xc7;" horiz-adv-x="1335" d="M891 -25q-16 0 -30.5 1t-31.5 1l-14 -65q61 -14 113.5 -55t52.5 -109q0 -47 -23.5 -81t-60.5 -57.5t-83 -34.5t-93 -11q-72 0 -166 41l37 112q39 -14 68.5 -19t60.5 -5q35 0 58.5 13t23.5 36q0 31 -40 47t-112 25l47 180q-145 27 -256.5 95.5t-187.5 167.5t-116 223 t-40 265q0 160 54.5 300.5t157 245t250 165t331.5 60.5q86 0 174 -16.5t186 -53.5l-73 -189q-90 27 -153.5 37.5t-133.5 10.5q-123 0 -213 -48.5t-149.5 -126t-89 -178t-29.5 -207.5q0 -106 29.5 -206.5t89 -179t149.5 -126t213 -47.5q137 0 285 70l75 -186 q-92 -47 -183 -71t-177 -24z" />
<glyph unicode="&#xc8;" horiz-adv-x="1181" d="M137 1489h893v-211h-600v-1067h633v-211h-926v1489zM508 678q10 33 26.5 69.5t41 67.5t58.5 50.5t79 19.5h248v-207h-453zM344 1823h272l152 -256q-27 -6 -66.5 -7t-83 8t-83 30.5t-66.5 56.5z" />
<glyph unicode="&#xc9;" horiz-adv-x="1181" d="M137 1489h893v-211h-600v-1067h633v-211h-926v1489zM508 678q10 33 26.5 69.5t41 67.5t58.5 50.5t79 19.5h248v-207h-453zM780 1655q-31 -35 -71.5 -55.5t-82.5 -29.5t-81 -9t-66 6l176 256h273z" />
<glyph unicode="&#xca;" horiz-adv-x="1181" d="M137 1489h893v-211h-600v-1067h633v-211h-926v1489zM508 678q10 33 26.5 69.5t41 67.5t58.5 50.5t79 19.5h248v-207h-453zM725 1823l219 -238l-166 -37l-160 115l-155 -115l-164 37l215 238h211z" />
<glyph unicode="&#xcb;" horiz-adv-x="1181" d="M137 1489h893v-211h-600v-1067h633v-211h-926v1489zM508 678q10 33 26.5 69.5t41 67.5t58.5 50.5t79 19.5h248v-207h-453zM285 1720q0 53 37.5 91t91.5 38q53 0 92 -37.5t39 -91.5q0 -53 -39 -91t-92 -38t-91 38t-38 91zM684 1720q0 53 38 91t91 38t92 -37.5t39 -91.5 q0 -53 -39 -91t-92 -38t-91 38t-38 91z" />
<glyph unicode="&#xcc;" horiz-adv-x="571" d="M434 0h-284v1489h284v-1489zM12 1823h273l151 -256q-27 -6 -66.5 -7t-82.5 8t-83 30.5t-67 56.5z" />
<glyph unicode="&#xcd;" horiz-adv-x="657" d="M418 0h-285v1489h285v-1489zM440 1655q-31 -35 -71.5 -55.5t-82.5 -29.5t-81 -9t-66 6l176 256h273z" />
<glyph unicode="&#xce;" horiz-adv-x="657" d="M469 0h-285v1489h285v-1489zM432 1823l219 -238l-166 -37l-159 115l-156 -115l-164 37l215 238h211z" />
<glyph unicode="&#xcf;" horiz-adv-x="716" d="M498 0h-285v1489h285v-1489zM25 1720q0 53 37.5 91t91.5 38q53 0 92 -37.5t39 -91.5q0 -53 -39 -91t-92 -38t-91 38t-38 91zM424 1720q0 53 38 91t91 38t92 -37.5t39 -91.5q0 -53 -39 -91t-92 -38t-91 38t-38 91z" />
<glyph unicode="&#xd0;" horiz-adv-x="1460" d="M711 186q117 0 201.5 49.5t140 129t81 180t25.5 203.5q0 121 -31.5 223t-99 176t-173 116t-253.5 42q-41 0 -85 -4.5t-91 -12.5v-467h416v-186h-416v-635h-289v635h-162v186h162v641q137 29 256 41.5t209 12.5q205 0 365.5 -52.5t272.5 -151t170 -240.5t58 -324 q0 -162 -55 -303.5t-151.5 -246t-230.5 -164t-290 -59.5q-29 0 -52 1t-50 5.5t-58.5 10.5t-76.5 18q12 27 30.5 57.5t43 57.5t57.5 44t76 17z" />
<glyph unicode="&#xd1;" horiz-adv-x="1533" d="M446 1047l-28 69l4 -69v-1047h-250v1489h283l632 -1006l25 -67l-4 71v1002h258v-1489h-258zM444 1604q2 57 19.5 102t46.5 75.5t64.5 47t72.5 16.5q45 0 80 -17.5t64 -36.5l52 -37q24 -17 46 -17q27 0 43 25.5t20 66.5l150 -12q-4 -66 -23.5 -111t-47 -74.5t-60.5 -43 t-62 -13.5q-51 0 -86 17.5t-60 36.5l-47 37q-22 17 -46 17q-23 0 -45.5 -19t-26.5 -73z" />
<glyph unicode="&#xd2;" horiz-adv-x="1619" d="M784 182q106 0 186.5 48.5t134.5 127t81.5 180t27.5 207.5q0 113 -27.5 215.5t-81.5 180.5t-134 123t-187 45q-106 0 -186 -45t-134 -123t-82 -180.5t-28 -215.5q0 -106 28 -207.5t82 -180t134 -127t186 -48.5zM784 -29q-174 0 -311 57.5t-232.5 160t-146.5 244.5 t-51 312q0 168 52 309.5t148.5 245t233.5 162t307 58.5q172 0 309.5 -57.5t232.5 -161t146.5 -246t51.5 -310.5t-55.5 -310t-153.5 -244.5t-233.5 -161t-297.5 -58.5zM444 1823h273l151 -256q-27 -6 -66.5 -7t-82.5 8t-83 30.5t-67 56.5z" />
<glyph unicode="&#xd3;" horiz-adv-x="1619" d="M780 182q106 0 186.5 48.5t134.5 127t81.5 180t27.5 207.5q0 113 -27.5 215.5t-81.5 180.5t-134 123t-187 45q-106 0 -186 -45t-134 -123t-82 -180.5t-28 -215.5q0 -106 28 -207.5t82 -180t134 -127t186 -48.5zM780 -29q-174 0 -311 57.5t-232.5 160t-146.5 244.5 t-51 312q0 168 52 309.5t148.5 245t233.5 162t307 58.5q172 0 309.5 -57.5t232.5 -161t146.5 -246t51.5 -310.5t-55.5 -310t-154 -244.5t-233.5 -161t-297 -58.5zM977 1655q-31 -35 -72 -55.5t-83 -29.5t-81 -9t-65 6l176 256h272z" />
<glyph unicode="&#xd4;" horiz-adv-x="1619" d="M780 182q106 0 186.5 48.5t134.5 127t81.5 180t27.5 207.5q0 113 -27.5 215.5t-81.5 180.5t-134 123t-187 45q-106 0 -186 -45t-134 -123t-82 -180.5t-28 -215.5q0 -106 28 -207.5t82 -180t134 -127t186 -48.5zM780 -29q-174 0 -311 57.5t-232.5 160t-146.5 244.5 t-51 312q0 168 52 309.5t148.5 245t233.5 162t307 58.5q172 0 309.5 -57.5t232.5 -161t146.5 -246t51.5 -310.5t-55.5 -310t-154 -244.5t-233.5 -161t-297 -58.5zM891 1823l219 -238l-166 -37l-160 115l-155 -115l-164 37l215 238h211z" />
<glyph unicode="&#xd5;" horiz-adv-x="1619" d="M782 182q106 0 186.5 48.5t134.5 127t81.5 180t27.5 207.5q0 113 -27.5 215.5t-81.5 180.5t-134 123t-187 45q-106 0 -186 -45t-134 -123t-82 -180.5t-28 -215.5q0 -106 28 -207.5t82 -180t134 -127t186 -48.5zM782 -29q-174 0 -311 57.5t-232.5 160t-146.5 244.5 t-51 312q0 168 52 309.5t148.5 245t233.5 162t307 58.5q172 0 309.5 -57.5t232.5 -161t146.5 -246t51.5 -310.5t-55.5 -310t-154 -244.5t-233.5 -161t-297 -58.5zM463 1604q2 57 19.5 102t46 75.5t64.5 47t73 16.5q45 0 79.5 -17.5t63.5 -36.5l52 -37q24 -17 46 -17 q27 0 43.5 25.5t20.5 66.5l149 -12q-4 -66 -23.5 -111t-47 -74.5t-60.5 -43t-61 -13.5q-51 0 -86 17.5t-61 36.5l-47 37q-22 17 -46 17q-23 0 -45 -19t-27 -73z" />
<glyph unicode="&#xd6;" horiz-adv-x="1619" d="M782 182q106 0 186.5 48.5t134.5 127t81.5 180t27.5 207.5q0 113 -27.5 215.5t-81.5 180.5t-134 123t-187 45q-106 0 -186 -45t-134 -123t-82 -180.5t-28 -215.5q0 -106 28 -207.5t82 -180t134 -127t186 -48.5zM782 -29q-174 0 -311 57.5t-232.5 160t-146.5 244.5 t-51 312q0 168 52 309.5t148.5 245t233.5 162t307 58.5q172 0 309.5 -57.5t232.5 -161t146.5 -246t51.5 -310.5t-55.5 -310t-154 -244.5t-233.5 -161t-297 -58.5zM457 1720q0 53 37.5 91t91.5 38q53 0 92 -37.5t39 -91.5q0 -53 -39 -91t-92 -38t-91 38t-38 91zM856 1720 q0 53 38 91t91 38t92 -37.5t39 -91.5q0 -53 -39 -91t-92 -38t-91 38t-38 91z" />
<glyph unicode="&#xd7;" horiz-adv-x="1163" d="M80 285l340 342l-340 338l156 153l339 -338l336 338l154 -153l-336 -338l340 -342l-154 -154l-340 340l-342 -340z" />
<glyph unicode="&#xd8;" horiz-adv-x="1619" d="M1262 1362q125 -104 192.5 -262t67.5 -355q0 -168 -55.5 -310t-154 -244.5t-233.5 -161t-297 -58.5q-84 0 -157.5 13.5t-139.5 38.5l-84 -146h-243l147 250q-129 104 -196.5 262t-67.5 356q0 168 52 309.5t148.5 245t233.5 162t307 58.5q164 0 295 -54l90 150h244z M782 182q106 0 186.5 48.5t134.5 127t81.5 180t27.5 207.5t-23.5 201.5t-70.5 171.5l-487 -823q-23 31 -45.5 65.5t-34.5 73.5t-11 81t23 87l398 666q-78 41 -179 41q-106 0 -186 -45t-134 -123t-82 -180.5t-28 -215.5q0 -106 28 -207.5t82 -180t134 -127t186 -48.5z" />
<glyph unicode="&#xd9;" horiz-adv-x="1421" d="M713 -29q-137 0 -248 39t-187.5 115t-118.5 187.5t-42 256.5v920h289v-950q0 -84 23.5 -149.5t64.5 -112t97 -71t122 -24.5t122 24.5t97 71t64.5 112t23.5 149.5v950h287v-920q0 -135 -41 -245.5t-118 -189.5t-187.5 -121t-247.5 -42zM410 1823h272l152 -256 q-27 -6 -67 -7t-83 8t-83 30.5t-66 56.5z" />
<glyph unicode="&#xda;" horiz-adv-x="1421" d="M711 -29q-137 0 -248 39t-187.5 115t-118.5 187.5t-42 256.5v920h288v-950q0 -84 24 -149.5t64.5 -112t97 -71t122.5 -24.5t122 24.5t97 71t64.5 112t23.5 149.5v950h287v-920q0 -135 -41 -245.5t-118 -189.5t-187.5 -121t-247.5 -42zM895 1655q-31 -35 -72 -55.5 t-83 -29.5t-80.5 -9t-65.5 6l176 256h272z" />
<glyph unicode="&#xdb;" horiz-adv-x="1421" d="M711 -29q-137 0 -248 39t-187.5 115t-118.5 187.5t-42 256.5v920h288v-950q0 -84 24 -149.5t64.5 -112t97 -71t122.5 -24.5t122 24.5t97 71t64.5 112t23.5 149.5v950h287v-920q0 -135 -41 -245.5t-118 -189.5t-187.5 -121t-247.5 -42zM815 1823l219 -238l-166 -37 l-159 115l-156 -115l-164 37l215 238h211z" />
<glyph unicode="&#xdc;" horiz-adv-x="1421" d="M709 -29q-137 0 -248 39t-187.5 115t-118.5 187.5t-42 256.5v920h288v-950q0 -84 24 -149.5t64.5 -112t97 -71t122.5 -24.5t122 24.5t97 71t64.5 112t23.5 149.5v950h287v-920q0 -135 -41 -245.5t-118 -189.5t-187.5 -121t-247.5 -42zM383 1720q0 53 38 91t91 38 t92 -37.5t39 -91.5q0 -53 -39 -91t-92 -38t-91 38t-38 91zM782 1720q0 53 38 91t91 38t92 -37.5t39 -91.5q0 -53 -38.5 -91t-92.5 -38q-53 0 -91 38t-38 91z" />
<glyph unicode="&#xdd;" horiz-adv-x="1351" d="M807 694v-694h-283v659l-514 830h320zM987 1489h316l-435 -717q-20 27 -43.5 69t-39 92t-16.5 104.5t26 103.5zM887 1655q-31 -35 -72 -55.5t-83 -29.5t-81 -9t-65 6l176 256h272z" />
<glyph unicode="&#xde;" horiz-adv-x="1247" d="M1182 745q0 -106 -40 -189t-106.5 -142.5t-151.5 -94t-177 -43.5q-47 -4 -98.5 -0.5t-108.5 19.5q12 29 27.5 60.5t37 58t49 45t62.5 22.5q43 4 80 25.5t64.5 56.5t44 82t16.5 100q0 115 -78 191t-207 76q-29 0 -48 -1l-38 -2q-18 -1 -38.5 -4.5t-47.5 -5.5v-999h-279 v1489h279v-272q43 4 84 5t88 1q125 0 231.5 -32t185.5 -93.5t124 -150.5t45 -202z" />
<glyph unicode="&#xdf;" horiz-adv-x="1161" d="M582 236q66 -29 113.5 -38.5t78.5 -9.5q55 0 92 30t37 77q0 43 -26.5 77t-65.5 65.5t-86 65.5t-86 78t-65.5 102t-26.5 138q0 45 17.5 89t48 83t73.5 72t96 53q6 23 7.5 43.5t1.5 42.5q0 66 -48.5 110t-126.5 44q-90 0 -147 -58.5t-57 -162.5v-1137l-273 -2v1116 q0 115 37 199t100.5 139t147.5 83t178 28t171 -26t130 -73t82 -113.5t29 -146.5q0 -104 -78 -229q-70 -29 -104.5 -65t-34.5 -89q0 -45 26.5 -77.5t65.5 -64.5t86 -64.5t86 -76.5t65.5 -104.5t26.5 -144.5q0 -76 -29.5 -134.5t-78 -98.5t-111 -60.5t-127.5 -20.5 q-61 0 -130 13.5t-167 62.5z" />
<glyph unicode="&#xe0;" d="M219 1516h275l149 -283q-27 -6 -63.5 -6t-77.5 11t-81 32.5t-71 58.5zM786 0q-35 18 -54 55t-32 74q-51 -49 -93 -79t-81 -47t-76.5 -23.5t-78.5 -6.5q-74 0 -132.5 26t-100.5 69t-63.5 98t-21.5 117q0 63 26.5 122.5t91.5 107.5t173.5 82t269.5 46q-10 -72 -41.5 -125 t-97.5 -65q-78 -12 -112.5 -51.5t-34.5 -90.5q0 -53 37.5 -89t91.5 -36q59 0 118.5 40t112.5 104v309q0 106 -58.5 169.5t-166.5 63.5q-51 0 -109.5 -10t-130.5 -37l-69 181q92 41 173 59t152 18q242 0 364 -113.5t122 -330.5v-379q0 -57 7 -121.5t25 -136.5h-211z" />
<glyph unicode="&#xe1;" d="M711 1321q-31 -37 -71 -57.5t-82 -29.5t-81 -8t-65 7l176 283h284zM786 0q-35 18 -54 55t-32 74q-51 -49 -93 -79t-81 -47t-76.5 -23.5t-78.5 -6.5q-74 0 -132.5 26t-100.5 69t-63.5 98t-21.5 117q0 63 26.5 122.5t91.5 107.5t173.5 82t269.5 46q-10 -72 -41.5 -125 t-97.5 -65q-78 -12 -112.5 -51.5t-34.5 -90.5q0 -53 37.5 -89t91.5 -36q59 0 118.5 40t112.5 104v309q0 106 -58.5 169.5t-166.5 63.5q-51 0 -109.5 -10t-130.5 -37l-69 181q92 41 173 59t152 18q242 0 367 -113.5t125 -330.5v-379q0 -57 7 -121.5t26 -136.5h-218z" />
<glyph unicode="&#xe2;" d="M651 1522l219 -287l-165 -37l-160 150l-156 -150l-164 37l215 287h211zM786 0q-35 18 -54 55t-32 74q-51 -49 -93 -79t-81 -47t-76.5 -23.5t-78.5 -6.5q-74 0 -132.5 26t-100.5 69t-63.5 98t-21.5 117q0 63 26.5 122.5t91.5 107.5t173.5 82t269.5 46q-10 -72 -41.5 -125 t-97.5 -65q-78 -12 -112.5 -51.5t-34.5 -90.5q0 -53 37.5 -89t91.5 -36q59 0 118.5 40t112.5 104v309q0 106 -58.5 169.5t-166.5 63.5q-51 0 -109.5 -10t-130.5 -37l-69 181q92 41 173 59t152 18q242 0 367 -113.5t125 -330.5v-379q0 -57 7 -121.5t26 -136.5h-218z" />
<glyph unicode="&#xe3;" d="M215 1278q2 57 19.5 102t46 76t64.5 47.5t73 16.5q45 0 79.5 -17.5t63.5 -37.5l52 -37q24 -17 46 -17q27 0 43.5 25.5t20.5 66.5l149 -12q-4 -66 -23.5 -111t-47 -74.5t-60 -43t-61.5 -13.5q-51 0 -86 17.5t-60 37.5l-48 36q-22 17 -46 18q-23 0 -45 -19.5t-26 -72.5z M788 0q-35 18 -54 55t-32 74q-51 -49 -93 -79t-81 -47t-76.5 -23.5t-78.5 -6.5q-74 0 -132.5 26t-100.5 69t-63.5 98t-21.5 117q0 63 27 122.5t91.5 107.5t173 82t269.5 46q-10 -72 -41.5 -125t-97.5 -65q-78 -12 -112.5 -51.5t-34.5 -90.5q0 -53 38 -89t91 -36 q59 0 118.5 40t112.5 104v309q0 106 -58.5 169.5t-166.5 63.5q-51 0 -109.5 -10t-130.5 -37l-69 181q92 41 173 59t152 18q242 0 367 -113.5t125 -330.5v-379q0 -57 7 -121.5t26 -136.5h-218z" />
<glyph unicode="&#xe4;" d="M219 1372q0 53 38 91t91 38t92 -38t39 -91t-39 -91t-92 -38t-91 38t-38 91zM788 0q-35 18 -54 55t-32 74q-51 -49 -93 -79t-81 -47t-76.5 -23.5t-78.5 -6.5q-74 0 -132.5 26t-100.5 69t-63.5 98t-21.5 117q0 63 27 122.5t91.5 107.5t173 82t269.5 46q-10 -72 -41.5 -125 t-97.5 -65q-78 -12 -112.5 -51.5t-34.5 -90.5q0 -53 38 -89t91 -36q59 0 118.5 40t112.5 104v309q0 106 -58.5 169.5t-166.5 63.5q-51 0 -109.5 -10t-130.5 -37l-69 181q92 41 173 59t152 18q242 0 367 -113.5t125 -330.5v-379q0 -57 7 -121.5t26 -136.5h-218zM618 1372 q0 53 38 91t92 38q53 0 92 -38t39 -91t-39 -91t-92 -38t-91.5 38t-38.5 91z" />
<glyph unicode="&#xe5;" d="M788 0q-35 18 -54 55t-32 74q-51 -49 -93 -79t-81 -47t-76.5 -23.5t-78.5 -6.5q-74 0 -132.5 26t-100.5 69t-63.5 98t-21.5 117q0 63 27 122.5t91.5 107.5t173 82t269.5 46q-10 -72 -41.5 -125t-97.5 -65q-78 -12 -112.5 -51.5t-34.5 -90.5q0 -53 38 -89t91 -36 q59 0 118.5 40t112.5 104v309q0 106 -58.5 169.5t-166.5 63.5q-51 0 -109.5 -10t-130.5 -37l-69 181q92 41 188 59t168 18q219 0 340 -113.5t121 -330.5v-379q0 -57 7 -121.5t26 -136.5h-218zM547 1147q-98 0 -161.5 54t-63.5 136q0 43 17 80t48 63.5t72 42t90 15.5 q98 0 159.5 -54t61.5 -145q0 -43 -17.5 -77.5t-48 -60t-71.5 -40t-86 -14.5zM547 1262q37 0 56.5 22.5t19.5 56.5q0 35 -19.5 58.5t-56.5 23.5q-35 0 -53.5 -23.5t-18.5 -60.5q0 -29 18.5 -53t53.5 -24z" />
<glyph unicode="&#xe6;" horiz-adv-x="1740" d="M1393 649q6 47 -4.5 90t-34 76t-59 52.5t-83.5 19.5q-43 0 -85 -18.5t-76.5 -58.5t-56 -102.5t-21.5 -150.5q0 -178 80 -275.5t209 -97.5q72 0 140 17.5t159 58.5l71 -190q-111 -53 -208 -75t-193 -22q-72 0 -137.5 25t-117.5 63.5t-89 88t-53 98.5q-33 -74 -81 -125 t-104.5 -85t-115 -49.5t-109.5 -15.5q-82 0 -149.5 21.5t-116.5 61.5t-76 97.5t-27 129.5q0 63 27 122.5t91.5 107.5t173 82t269.5 46q-10 -72 -41.5 -125t-97.5 -65q-78 -12 -112.5 -51.5t-34.5 -90.5q0 -53 38 -89t91 -36t96 27t72.5 74t46 112.5t16.5 145.5v94 q0 106 -58.5 169.5t-166.5 63.5q-51 0 -109.5 -10t-130.5 -37l-69 181q92 41 188 59t168 18q98 0 190.5 -55t151.5 -166q29 51 71 93t91 71t103.5 45t107.5 16q113 0 207 -45t151 -124.5t70.5 -191.5t-31.5 -243h-573q23 72 64.5 120t94.5 48h183z" />
<glyph unicode="&#xe7;" horiz-adv-x="874" d="M584 1085q55 0 120.5 -11t126.5 -34l-69 -190q-49 12 -96.5 18t-81.5 6q-111 0 -178.5 -92t-67.5 -252q0 -162 67.5 -254t178.5 -92q43 0 92 11.5t115 37.5l69 -188q-78 -35 -147.5 -52.5t-124.5 -19.5l-15 -61q61 -14 113.5 -55t52.5 -109q0 -47 -23.5 -81t-60.5 -57.5 t-83 -34.5t-93 -11q-72 0 -166 41l37 112q39 -14 69 -19t60 -5q35 0 58.5 13t23.5 36q0 31 -40 47t-111 25l45 172q-86 16 -163 56t-134.5 106.5t-90 162t-32.5 219.5q0 139 46 244t122 173.5t175.5 103t205.5 34.5z" />
<glyph unicode="&#xe8;" horiz-adv-x="1114" d="M772 649q6 47 -4 90t-33.5 76t-59.5 52.5t-83 19.5q-43 0 -85 -18.5t-77 -58.5t-56.5 -102.5t-21.5 -150.5q0 -178 80 -275.5t209 -97.5q72 0 140.5 17.5t158.5 58.5l72 -190q-111 -53 -208 -75t-194 -22q-141 0 -242.5 51.5t-168 132.5t-98 183t-31.5 207q0 127 42 227 t114.5 169t171 105.5t208.5 36.5q113 0 207 -45t151.5 -124.5t71 -191.5t-31.5 -243h-574q23 72 65 120t95 48h182zM272 1516h275l149 -283q-27 -6 -63.5 -6t-77.5 11t-81 32.5t-71 58.5z" />
<glyph unicode="&#xe9;" horiz-adv-x="1114" d="M770 649q6 47 -4 90t-33.5 76t-59.5 52.5t-83 19.5q-43 0 -85 -18.5t-77 -58.5t-56.5 -102.5t-21.5 -150.5q0 -178 80 -275.5t209 -97.5q72 0 140.5 17.5t158.5 58.5l72 -190q-111 -53 -208 -75t-194 -22q-141 0 -242.5 51.5t-168 132.5t-98 183t-31.5 207q0 127 42 227 t114.5 169t171 105.5t208.5 36.5q113 0 207 -45t151.5 -124.5t71 -191.5t-32.5 -243h-573q23 72 65 120t95 48h182zM762 1321q-31 -37 -71 -57.5t-82 -29.5t-81 -8t-65 7l176 283h285z" />
<glyph unicode="&#xea;" horiz-adv-x="1114" d="M768 649q6 47 -4 90t-33.5 76t-59.5 52.5t-83 19.5q-43 0 -85 -18.5t-77 -58.5t-56.5 -102.5t-21.5 -150.5q0 -178 80 -275.5t209 -97.5q72 0 140.5 17.5t158.5 58.5l72 -190q-111 -53 -208.5 -75t-193.5 -22q-141 0 -242.5 51.5t-168 132.5t-98 183t-31.5 207 q0 127 42 227t114.5 169t171 105.5t208.5 36.5q113 0 207 -45t151.5 -124.5t70.5 -191.5t-32 -243h-573q23 72 64.5 120t95.5 48h182zM702 1522l220 -287l-166 -37l-160 150l-156 -150l-164 37l216 287h210z" />
<glyph unicode="&#xeb;" horiz-adv-x="1114" d="M772 649q6 47 -4 90t-33.5 76t-59.5 52.5t-83 19.5q-43 0 -85 -18.5t-77 -58.5t-56.5 -102.5t-21.5 -150.5q0 -178 80 -275.5t209 -97.5q72 0 140.5 17.5t158.5 58.5l72 -190q-111 -53 -208 -75t-194 -22q-141 0 -242.5 51.5t-168 132.5t-98 183t-31.5 207q0 127 42 227 t114.5 169t171 105.5t208.5 36.5q113 0 207 -45t151.5 -124.5t71 -191.5t-31.5 -243h-574q23 72 65 120t95 48h182zM254 1372q0 53 38 91t91 38t92 -38t39 -91t-39 -91t-92 -38t-91 38t-38 91zM653 1372q0 53 38 91t91 38t92 -38t39 -91t-38.5 -91t-92.5 -38q-53 0 -91 38 t-38 91z" />
<glyph unicode="&#xec;" horiz-adv-x="565" d="M182 0v1059h287v-1059h-287zM-6 1516h274l150 -283q-27 -6 -64 -6t-77.5 11t-80.5 32.5t-71 58.5z" />
<glyph unicode="&#xed;" horiz-adv-x="559" d="M98 0v1059h287v-1059h-287zM412 1321q-31 -37 -71 -57.5t-82 -29.5t-81 -8t-65 7l176 283h284z" />
<glyph unicode="&#xee;" horiz-adv-x="690" d="M199 0v1059h286v-1059h-286zM449 1522l219 -287l-166 -37l-160 150l-156 -150l-163 37l215 287h211z" />
<glyph unicode="&#xef;" horiz-adv-x="720" d="M217 0v1059h287v-1059h-287zM29 1372q0 53 37.5 91t91.5 38q53 0 92 -38t39 -91t-39 -91t-92 -38t-91 38t-38 91zM428 1372q0 53 38 91t91 38t92 -38t39 -91t-39 -91t-92 -38t-91 38t-38 91z" />
<glyph unicode="&#xf0;" horiz-adv-x="1140" d="M1126 530q0 -119 -43 -220t-116.5 -176t-174 -118t-214.5 -43q-115 0 -215.5 39t-174 112t-116.5 175t-43 231q0 117 43 218.5t116.5 176t174 117.5t215.5 43q35 0 75.5 -7t75.5 -23q-80 98 -182 174l-236 -111l-55 119l162 78l-86 47l-86 43l88 156q74 -31 145.5 -68 t136.5 -84l226 109l59 -121l-164 -78q86 -74 158 -160t123 -185.5t79.5 -210t28.5 -233.5zM332 530q0 -72 16.5 -135t47 -110t76.5 -75t106 -28q59 0 105 28t77 75t46 110.5t15 134.5q0 72 -15 134.5t-46 109.5t-77 75t-105 28t-105.5 -28t-77 -75t-47 -109.5t-16.5 -134.5z " />
<glyph unicode="&#xf1;" horiz-adv-x="1220" d="M334 1059q49 -55 65.5 -109.5t16.5 -115.5v-834h-287v801q0 119 -33 258h238zM791 752q0 51 -20.5 83.5t-74.5 32.5q-20 0 -38.5 -5t-47.5 -7q-25 -2 -45 10.5t-37.5 32t-32.5 43.5l-30 49q102 53 178 73.5t148 20.5q53 0 104 -20.5t91 -61t64.5 -102t24.5 -145.5v-756 h-284v752zM270 1278q2 57 19.5 102t46.5 76t64.5 47.5t72.5 16.5q45 0 80 -17.5t63 -37.5l53 -37q24 -17 46 -17q27 0 43 25.5t20 66.5l150 -12q-4 -66 -23.5 -111t-47.5 -74.5t-60.5 -43t-61.5 -13.5q-51 0 -86 17.5t-60 37.5l-47 36q-22 17 -46 18q-23 0 -45.5 -19.5 t-26.5 -72.5z" />
<glyph unicode="&#xf2;" horiz-adv-x="1159" d="M1124 530q0 -119 -43 -220t-116.5 -176t-174 -118t-215.5 -43t-215 39t-173.5 112t-116.5 175t-43 231q0 117 43 218.5t116.5 176t174 117.5t214.5 43q115 0 215.5 -38.5t174 -111.5t116.5 -175.5t43 -229.5zM330 530q0 -72 16 -135t47 -110t77 -75t105 -28t105.5 28 t77 75t46 110.5t15.5 134.5q0 72 -15.5 134.5t-46 109.5t-76.5 75t-106 28q-59 0 -105 -28t-77 -75t-47 -109.5t-16 -134.5zM274 1516h275l149 -283q-27 -6 -63.5 -6t-77.5 11t-81 32.5t-70 58.5z" />
<glyph unicode="&#xf3;" horiz-adv-x="1159" d="M1124 530q0 -119 -43 -220t-116.5 -176t-174 -118t-215.5 -43t-215 39t-173.5 112t-116.5 175t-43 231q0 117 43 218.5t116.5 176t174 117.5t214.5 43q115 0 215.5 -38.5t174 -111.5t116.5 -175.5t43 -229.5zM330 530q0 -72 16 -135t47 -110t77 -75t105 -28t105.5 28 t77 75t46 110.5t15.5 134.5q0 72 -15.5 134.5t-46 109.5t-76.5 75t-106 28q-59 0 -105 -28t-77 -75t-47 -109.5t-16 -134.5zM745 1321q-31 -37 -70.5 -57.5t-81.5 -29.5t-81 -8t-66 7l177 283h284z" />
<glyph unicode="&#xf4;" horiz-adv-x="1159" d="M1124 530q0 -119 -43 -220t-116.5 -176t-174 -118t-215.5 -43t-215 39t-173.5 112t-116.5 175t-43 231q0 117 43 218.5t116.5 176t174 117.5t214.5 43q115 0 215.5 -38.5t174 -111.5t116.5 -175.5t43 -229.5zM330 530q0 -72 16 -135t47 -110t77 -75t105 -28t105.5 28 t77 75t46 110.5t15.5 134.5q0 72 -15.5 134.5t-46 109.5t-76.5 75t-106 28q-59 0 -105 -28t-77 -75t-47 -109.5t-16 -134.5zM680 1522l219 -287l-166 -37l-160 150l-155 -150l-164 37l215 287h211z" />
<glyph unicode="&#xf5;" horiz-adv-x="1159" d="M1124 530q0 -119 -43 -220t-116.5 -176t-174 -118t-215.5 -43t-215 39t-173.5 112t-116.5 175t-43 231q0 117 43 218.5t116.5 176t174 117.5t214.5 43q115 0 215.5 -38.5t174 -111.5t116.5 -175.5t43 -229.5zM330 530q0 -72 16 -135t47 -110t77 -75t105 -28t105.5 28 t77 75t46 110.5t15.5 134.5q0 72 -15.5 134.5t-46 109.5t-76.5 75t-106 28q-59 0 -105 -28t-77 -75t-47 -109.5t-16 -134.5zM248 1278q2 57 19.5 102t46 76t64.5 47.5t73 16.5q45 0 79.5 -17.5t63.5 -37.5l52 -37q24 -17 46 -17q27 0 43.5 25.5t20.5 66.5l149 -12 q-4 -66 -23.5 -111t-47 -74.5t-60.5 -43t-61 -13.5q-51 0 -86 17.5t-61 37.5l-47 36q-22 17 -46 18q-23 0 -45 -19.5t-27 -72.5z" />
<glyph unicode="&#xf6;" horiz-adv-x="1159" d="M1122 530q0 -119 -43 -220t-116.5 -176t-174 -118t-215.5 -43t-215 39t-173.5 112t-116.5 175t-43 231q0 117 43 218.5t116.5 176t174 117.5t214.5 43q115 0 215.5 -38.5t174 -111.5t116.5 -175.5t43 -229.5zM328 530q0 -72 16 -135t47 -110t77 -75t105 -28t105.5 28 t77 75t46 110.5t15.5 134.5q0 72 -15.5 134.5t-46 109.5t-76.5 75t-106 28q-59 0 -105 -28t-77 -75t-47 -109.5t-16 -134.5zM246 1372q0 53 38 91t91 38t92 -38t39 -91t-39 -91t-92 -38t-91 38t-38 91zM645 1372q0 53 38 91t91 38t92 -38t39 -91t-39 -91t-92 -38t-91 38 t-38 91z" />
<glyph unicode="&#xf7;" horiz-adv-x="1163" d="M449 229q0 57 34.5 93t89.5 36q57 0 93 -35.5t36 -93.5q0 -55 -35.5 -90t-93.5 -35q-55 0 -89.5 35t-34.5 90zM96 723h959v-197h-959v197zM451 1012q0 55 34.5 91t87.5 36q55 0 91 -36t36 -91q0 -53 -35.5 -88t-91.5 -35q-53 0 -87.5 35t-34.5 88z" />
<glyph unicode="&#xf8;" horiz-adv-x="1024" d="M1120 530q0 -119 -42 -220t-115.5 -176t-173 -118t-214.5 -43q-53 0 -103 8.5t-97 24.5l-82 -141h-199l131 223q-92 72 -142 184.5t-50 257.5q0 117 42 218.5t114.5 176t172 117.5t213.5 43q115 0 220 -41l77 130h193l-127 -216q86 -74 134 -182.5t48 -245.5zM326 530 q0 -72 16 -135t48 -110t79 -75t106 -28t105.5 28t78.5 75t48 110.5t16 134.5q0 49 -9 94.5t-26 84.5l-264 -447q-18 20 -35.5 47t-27.5 57.5t-10 64.5t18 71l209 348q-49 27 -103 27q-59 0 -106 -28t-79 -75t-48 -109.5t-16 -134.5z" />
<glyph unicode="&#xf9;" horiz-adv-x="1202" d="M838 0q-47 55 -63.5 109.5t-16.5 115.5v834h286v-801q0 -119 33 -258h-239zM383 307q0 -51 20.5 -84t73.5 -33q20 0 39 5.5t47 7.5q25 2 44.5 -10.5t38 -32t33.5 -43.5l30 -49q-102 -53 -178 -74t-148 -21q-53 0 -104.5 20.5t-91.5 61.5t-64.5 102.5t-24.5 145.5v756h285 v-752zM262 1516h275l149 -283q-27 -6 -63.5 -6t-77.5 11t-81 32.5t-71 58.5z" />
<glyph unicode="&#xfa;" horiz-adv-x="1202" d="M842 0q-47 55 -63.5 109.5t-16.5 115.5v834h287v-801q0 -119 32 -258h-239zM387 307q0 -51 20.5 -84t73.5 -33q20 0 39 5.5t47 7.5q25 2 44.5 -10.5t38 -32t33.5 -43.5l30 -49q-102 -53 -178 -74t-148 -21q-53 0 -104.5 20.5t-91 61.5t-64.5 102.5t-25 145.5v756h285 v-752zM770 1321q-31 -37 -71 -57.5t-82 -29.5t-80.5 -8t-65.5 7l176 283h285z" />
<glyph unicode="&#xfb;" horiz-adv-x="1202" d="M842 0q-47 55 -63.5 109.5t-16.5 115.5v834h287v-801q0 -119 32 -258h-239zM387 307q0 -51 20.5 -84t73.5 -33q20 0 39 5.5t47 7.5q25 2 44.5 -10.5t38 -32t33.5 -43.5l30 -49q-102 -53 -178 -74t-148 -21q-53 0 -104.5 20.5t-91 61.5t-64.5 102.5t-25 145.5v756h285 v-752zM680 1522l219 -287l-166 -37l-160 150l-155 -150l-164 37l215 287h211z" />
<glyph unicode="&#xfc;" horiz-adv-x="1202" d="M840 0q-47 55 -63.5 109.5t-16.5 115.5v834h287v-801q0 -119 32 -258h-239zM385 307q0 -51 20.5 -84t73.5 -33q20 0 39 5.5t47 7.5q25 2 44.5 -10.5t38 -32t33.5 -43.5l30 -49q-102 -53 -178 -74t-148 -21q-53 0 -104.5 20.5t-91 61.5t-64.5 102.5t-25 145.5v756h285 v-752zM254 1372q0 53 38 91t91 38t92 -38t39 -91t-39 -91t-92 -38t-91 38t-38 91zM653 1372q0 53 38 91t91 38t92 -38t39 -91t-38.5 -91t-92.5 -38q-53 0 -91 38t-38 91z" />
<glyph unicode="&#xfd;" horiz-adv-x="1083" d="M223 -299q53 0 92 24.5t70 71.5t56.5 117l56.5 162l303 983h293l-375 -1036q-51 -133 -96 -232.5t-98.5 -165t-125 -99.5t-176.5 -34q-41 2 -89 9t-97 30l65 184q35 -10 63.5 -12t57.5 -2zM444 575q20 -68 22.5 -145.5t-10 -152t-34 -141t-47.5 -109.5l-381 1032h307z M733 1321q-31 -37 -70.5 -57.5t-81.5 -29.5t-81 -8t-66 7l176 283h285z" />
<glyph unicode="&#xfe;" horiz-adv-x="1224" d="M150 1552h270v-1351q47 -12 86 -16.5t80 -4.5q59 0 107 29t82 80t51.5 122.5t17.5 155.5q0 49 -9.5 103.5t-31 99.5t-56 73.5t-85.5 26.5q-35 -2 -59.5 11.5t-43 35t-35 51t-30.5 60.5q59 25 119.5 37t113.5 12q98 0 176 -45t132.5 -117.5t84 -164t29.5 -183.5 q0 -125 -39 -234.5t-112.5 -190.5t-178 -127t-233.5 -46q-43 0 -84 3t-82 12v-478h-270v2046z" />
<glyph unicode="&#xff;" horiz-adv-x="1083" d="M221 -299q53 0 92 24.5t70 71.5t56.5 117l56.5 162l303 983h293l-375 -1036q-51 -133 -96.5 -232.5t-98.5 -165t-124.5 -99.5t-176.5 -34q-41 2 -89 9t-97 30l65 184q35 -10 63.5 -12t57.5 -2zM442 575q20 -68 22.5 -145.5t-10 -152t-34 -141t-47.5 -109.5l-381 1032h307 zM217 1372q0 53 38 91t91 38t92 -38t39 -91t-39 -91t-92 -38t-91 38t-38 91zM616 1372q0 53 38 91t91 38t92.5 -38t39.5 -91t-39 -91t-93 -38q-53 0 -91 38t-38 91z" />
<glyph unicode="&#x152;" horiz-adv-x="1964" d="M782 1520q41 0 80 -6l78 -10l80 -10q41 -5 88 -5h764v-211h-600v-1067h633v-211h-797q-51 0 -94 -4t-82 -10t-76 -10.5t-74 -4.5q-174 0 -311 57.5t-232.5 160t-146.5 244.5t-51 312q0 168 52 309.5t148.5 245t233.5 162t307 58.5zM782 182q111 0 197 33v1059 q-92 35 -197 35q-106 0 -186 -45t-134 -123t-82 -180.5t-28 -215.5q0 -106 28 -207.5t82 -180t134 -127t186 -48.5zM1350 678q10 33 26.5 69.5t41 67.5t58 50.5t78.5 19.5h248v-207h-452z" />
<glyph unicode="&#x153;" horiz-adv-x="1867" d="M1538 649q6 47 -4 90t-33.5 76t-59.5 52.5t-83 19.5q-43 0 -85 -18.5t-77 -58.5t-56.5 -102.5t-21.5 -150.5q0 -178 80 -275.5t209 -97.5q72 0 140.5 17.5t158.5 58.5l72 -190q-111 -53 -208 -75t-194 -22q-63 0 -121.5 15.5t-108.5 42t-90 63.5t-67 80l-18 47l-23 -45 q-61 -86 -159.5 -144.5t-208.5 -58.5q-115 0 -215.5 39t-174 112t-116.5 175t-43 231q0 117 43 218.5t116.5 176t174 117.5t215.5 43q104 0 202.5 -48t161.5 -142l21 -47l24 49q66 92 169.5 140t213.5 48q113 0 207 -45t151.5 -124.5t71 -191.5t-32.5 -243h-573 q23 72 65 120t95 48h182zM334 530q0 -72 16.5 -135t47 -110t76.5 -75t106 -28q59 0 105 28t77 75t46 110.5t15 134.5q0 72 -15 134.5t-46 109.5t-77 75t-105 28t-105.5 -28t-77 -75t-47 -109.5t-16.5 -134.5z" />
<glyph unicode="&#x178;" horiz-adv-x="1351" d="M803 694v-694h-283v659l-514 830h320zM983 1489h315l-434 -717q-20 27 -43.5 69t-39 92t-16.5 104.5t26 103.5zM334 1720q0 53 38 91t91 38t92 -37.5t39 -91.5q0 -53 -39 -91t-92 -38t-91 38t-38 91zM733 1720q0 53 38 91t91 38t92 -37.5t39 -91.5q0 -53 -39 -91t-92 -38 t-91 38t-38 91z" />
<glyph unicode="&#x2c6;" horiz-adv-x="702" d="M449 1522l219 -287l-166 -37l-160 150l-156 -150l-163 37l215 287h211z" />
<glyph unicode="&#x2dc;" horiz-adv-x="1007" d="M215 1278q2 57 19.5 102t46 76t64.5 47.5t73 16.5q45 0 79.5 -17.5t63.5 -37.5l52 -37q24 -17 46 -17q27 0 43.5 25.5t20.5 66.5l149 -12q-4 -66 -23.5 -111t-47 -74.5t-60 -43t-61.5 -13.5q-51 0 -86 17.5t-60 37.5l-48 36q-22 17 -46 18q-23 0 -45 -19.5t-26 -72.5z " />
<glyph unicode="&#x2000;" horiz-adv-x="923" />
<glyph unicode="&#x2001;" horiz-adv-x="1849" />
<glyph unicode="&#x2002;" horiz-adv-x="923" />
<glyph unicode="&#x2003;" horiz-adv-x="1849" />
<glyph unicode="&#x2004;" horiz-adv-x="616" />
<glyph unicode="&#x2005;" horiz-adv-x="460" />
<glyph unicode="&#x2006;" horiz-adv-x="307" />
<glyph unicode="&#x2007;" horiz-adv-x="307" />
<glyph unicode="&#x2008;" horiz-adv-x="229" />
<glyph unicode="&#x2009;" horiz-adv-x="368" />
<glyph unicode="&#x200a;" horiz-adv-x="102" />
<glyph unicode="&#x2010;" horiz-adv-x="768" d="M92 522v201h619v-201h-619z" />
<glyph unicode="&#x2011;" horiz-adv-x="768" d="M92 522v201h619v-201h-619z" />
<glyph unicode="&#x2012;" horiz-adv-x="768" d="M92 522v201h619v-201h-619z" />
<glyph unicode="&#x2013;" horiz-adv-x="1105" d="M92 463v201h869v-201h-869z" />
<glyph unicode="&#x2014;" horiz-adv-x="1738" d="M92 463v201h1514v-201h-1514z" />
<glyph unicode="&#x2018;" horiz-adv-x="419" d="M305 1026h-250v160q0 70 14.5 132t44 105t77 61.5t114.5 4.5v-463z" />
<glyph unicode="&#x2019;" horiz-adv-x="391" d="M55 1489h250v-160q0 -72 -14.5 -133t-44 -104t-76.5 -61.5t-115 -4.5v463z" />
<glyph unicode="&#x201a;" horiz-adv-x="403" d="M115 201h250v-160q0 -72 -14.5 -133.5t-44.5 -104.5t-77 -61t-114 -4v463z" />
<glyph unicode="&#x201c;" horiz-adv-x="811" d="M735 1026h-250v160q0 70 14.5 132t44 105t77 61.5t114.5 4.5v-463zM317 1026h-249v160q0 70 14 132t44 105t77 61.5t114 4.5v-463z" />
<glyph unicode="&#x201d;" horiz-adv-x="851" d="M68 1489h249v-160q0 -72 -14 -133t-44 -104t-77 -61.5t-114 -4.5v463zM485 1489h250v-160q0 -72 -14 -133t-44 -104t-77 -61.5t-115 -4.5v463z" />
<glyph unicode="&#x201e;" horiz-adv-x="806" d="M68 201h249v-160q0 -72 -14 -133.5t-44 -104.5t-77 -61t-114 -4v463zM485 201h250v-160q0 -72 -14 -133.5t-44 -104.5t-77 -61t-115 -4v463z" />
<glyph unicode="&#x2022;" horiz-adv-x="1024" d="M336 645q0 84 53 139.5t137 55.5t139.5 -55.5t55.5 -139.5t-55.5 -137t-139.5 -53t-137 53t-53 137z" />
<glyph unicode="&#x2026;" horiz-adv-x="1746" d="M139 137q0 35 13.5 67t36 55.5t53 36.5t67.5 13q72 0 120 -50t48 -122t-48 -120t-120 -48t-121 48t-49 120zM694 137q0 35 13.5 67t36 55.5t53 36.5t67.5 13q72 0 120 -50t48 -122t-48 -120t-120 -48t-121 48t-49 120zM1247 137q0 35 13.5 67t36 55.5t53 36.5t67.5 13 q72 0 120 -50t48 -122t-48 -120t-120 -48t-121 48t-49 120z" />
<glyph unicode="&#x202f;" horiz-adv-x="368" />
<glyph unicode="&#x2039;" horiz-adv-x="1255" d="M356 528l478 439l112 -111l-258 -328l258 -327l-112 -109z" />
<glyph unicode="&#x203a;" horiz-adv-x="1255" d="M500 92l-113 109l258 327l-258 328l113 111l477 -439z" />
<glyph unicode="&#x205f;" horiz-adv-x="460" />
<glyph unicode="&#x20ac;" horiz-adv-x="1208" d="M752 -25q-147 0 -259 42t-192 114t-131 167t-76 202h-162v153h140q-2 16 -2 32v32v47q0 25 4 47h-142v154h168q29 102 82.5 192t134 156.5t188 105.5t247.5 39q84 0 168 -16.5t178 -50.5l-72 -181q-86 25 -146.5 35t-127.5 10q-98 0 -170 -46t-120 -120.5t-70.5 -172 t-22.5 -199.5v-32q0 -15 2 -32h565v-153h-504l-43 2l17 -33q41 -125 125.5 -208t220.5 -83q68 0 134 16.5t138 51.5l74 -180q-88 -47 -175 -69t-171 -22zM936 965v-154h-492q20 59 61.5 106.5t117.5 47.5h313z" />
<glyph unicode="&#x2122;" horiz-adv-x="1490" d="M57 1372v119h480v-119h-160v-493h-160v493h-160zM670 1491h192l133 -408l6 -26l7 26l133 408h192l64 -612h-152l-31 401l-4 35l-10 -35l-131 -391h-135l-135 391l-8 35l-5 -35l-30 -401h-150z" />
<glyph unicode="&#xe000;" horiz-adv-x="1060" d="M0 1060h1060v-1060h-1060v1060z" />
<glyph unicode="&#xfb01;" horiz-adv-x="1468" d="M1038 0v1059h287v-1059h-287zM1014 1366q0 72 48 122t120 50t120 -50t48 -122t-48.5 -120t-119.5 -48q-72 0 -120 48t-48 120zM215 856h-170v162l170 41v57q0 100 32 183t90 141.5t141 90.5t186 32q51 0 121.5 -13.5t150.5 -48.5l-64 -182q-59 16 -101 24.5t-77 8.5 q-100 0 -154.5 -64.5t-54.5 -171.5v-1116h-270v856zM850 1059v-203h-295q10 33 26.5 70t41 65.5t58.5 48t79 19.5h90z" />
<glyph unicode="&#xfb02;" horiz-adv-x="1472" d="M1333 0h-284v1552h284v-1552zM215 856h-170v162l170 41v57q0 100 32 183t90 141.5t141 90.5t186 32q51 0 121.5 -13.5t150.5 -48.5l-64 -182q-59 16 -101 24.5t-77 8.5q-100 0 -154.5 -64.5t-54.5 -171.5v-1116h-270v856zM850 1059v-203h-295q10 33 26.5 70t41 65.5 t58.5 48t79 19.5h90z" />
<glyph unicode="&#xfb03;" horiz-adv-x="2363" d="M1933 0v1059h287v-1059h-287zM1909 1366q0 72 48 122t120 50t120 -50t48 -122t-48.5 -120t-119.5 -48q-72 0 -120 48t-48 120zM1110 856h-170v162l170 41v57q0 100 32 183t90 141.5t141 90.5t186 32q51 0 121.5 -13.5t150.5 -48.5l-64 -182q-59 16 -101 24.5t-77 8.5 q-100 0 -154.5 -64.5t-54.5 -171.5v-1116h-270v856zM1745 1059v-203h-295q10 33 26.5 70t41 65.5t58.5 48t79 19.5h90zM215 856h-170v162l170 41v57q0 100 32 183t90 141.5t141 90.5t186 32q51 0 121.5 -13.5t150.5 -48.5l-64 -182q-59 16 -101 24.5t-77 8.5 q-100 0 -154.5 -64.5t-54.5 -171.5v-1116h-270v856zM850 1059v-203h-295q10 33 26.5 70t41 65.5t58.5 48t79 19.5h90z" />
<glyph unicode="&#xfb04;" horiz-adv-x="2367" d="M2228 0h-284v1552h284v-1552zM1110 856h-170v162l170 41v57q0 100 32 183t90 141.5t141 90.5t186 32q51 0 121.5 -13.5t150.5 -48.5l-64 -182q-59 16 -101 24.5t-77 8.5q-100 0 -154.5 -64.5t-54.5 -171.5v-1116h-270v856zM1745 1059v-203h-295q10 33 26.5 70t41 65.5 t58.5 48t79 19.5h90zM215 856h-170v162l170 41v57q0 100 32 183t90 141.5t141 90.5t186 32q51 0 121.5 -13.5t150.5 -48.5l-64 -182q-59 16 -101 24.5t-77 8.5q-100 0 -154.5 -64.5t-54.5 -171.5v-1116h-270v856zM850 1059v-203h-295q10 33 26.5 70t41 65.5t58.5 48t79 19.5 h90z" />
</font>
</defs>
</svg>
